<svg xmlns="http://www.w3.org/2000/svg" xmlns:v="https://svgstorm.com"
viewBox = "0 0 957 674"
width="957"
height="674">
<g fill="None" fill-opacity="0.0" stroke="#000000" stroke-opacity="0.00" stroke-width="0.3"><path d="
M 0.00 674.00 
L 434.00 674.00
C 433.18 673.40 430.88 672.22 430.00 672.00
C 426.45 671.10 422.59 670.76 419.00 670.00
C 416.64 669.50 413.96 668.50 412.00 668.00
C 408.96 667.56 406.87 666.91 404.00 666.00
C 402.30 665.46 400.40 664.50 399.00 664.00
C 393.69 662.78 389.18 660.71 384.00 659.00
C 381.55 658.19 380.00 656.94 378.00 656.00
C 374.33 654.89 371.64 653.57 368.00 652.00
C 365.72 651.01 359.57 650.68 361.00 648.00
C 360.64 647.77 360.00 648.00 360.00 648.00
C 354.95 646.89 351.09 642.48 347.00 640.00
C 343.62 638.59 341.22 637.12 338.00 635.00
C 330.89 630.32 324.21 625.37 319.00 620.00
C 317.97 619.28 317.11 618.94 316.00 618.00
C 309.93 612.86 299.63 606.43 296.00 599.00
C 290.15 597.77 286.83 587.81 282.23 583.77 C 277.63 579.73 273.70 572.39 270.00 567.00
C 264.64 559.18 258.89 551.03 256.00 542.00
C 254.58 539.12 252.39 536.15 251.00 533.00
C 248.47 527.26 245.35 521.09 244.00 515.00
C 243.08 512.52 241.90 509.72 241.00 507.00
C 234.83 488.26 230.00 468.33 230.00 448.00
C 227.52 422.38 229.00 394.41 229.00 368.00
C 229.00 352.10 228.54 335.09 230.00 320.00
C 229.99 306.56 230.47 292.78 230.00 280.00
C 230.23 276.05 240.83 278.46 245.00 278.00 C 249.17 277.54 256.96 278.16 262.00 278.00 C 267.04 277.84 274.72 278.00 280.00 278.00
C 301.33 278.00 322.67 278.00 344.00 278.00
C 354.67 278.00 365.33 278.00 376.00 278.00
C 380.71 277.54 386.60 277.00 392.00 277.00
C 397.33 277.00 402.67 277.00 408.00 277.00
C 437.33 277.00 466.67 277.00 496.00 277.00
C 512.00 277.00 528.00 277.00 544.00 277.00
C 570.67 277.00 597.33 277.00 624.00 277.00
C 644.40 275.03 666.84 276.00 688.00 276.00
C 692.73 276.00 702.80 275.54 707.00 276.00 C 711.20 276.46 724.77 273.95 725.00 278.00
C 726.92 299.61 725.00 322.29 725.00 344.00
C 725.00 362.67 725.00 381.33 725.00 400.00
C 725.00 411.63 725.05 424.15 724.00 435.00
C 723.99 441.38 723.54 448.38 723.00 454.00
C 723.00 480.13 713.09 506.63 703.00 530.00
C 699.99 536.98 696.17 542.79 693.00 549.00
C 690.42 555.82 686.04 561.74 682.00 568.00
C 679.11 572.47 676.44 577.90 672.00 581.00
C 671.91 581.48 672.00 582.00 672.00 582.00
C 670.10 586.92 661.09 597.34 656.00 599.00
C 655.80 599.40 656.00 600.00 656.00 600.00
C 655.39 602.09 650.09 607.39 648.00 608.00
C 647.54 608.13 647.00 608.00 647.00 608.00
C 643.02 613.69 636.74 618.20 631.30 622.30 C 625.87 626.40 620.38 632.69 614.00 635.00
C 613.56 635.16 613.00 635.00 613.00 635.00
C 611.78 636.68 610.68 636.91 609.00 638.00
C 607.32 639.34 606.99 639.09 605.00 640.00
C 600.74 642.61 596.59 645.70 592.00 648.00
C 588.19 649.91 584.92 651.55 581.00 653.00
C 579.45 653.72 577.92 655.47 576.00 656.00
C 575.53 656.13 574.49 655.92 574.00 656.00
C 572.06 656.95 570.22 658.18 568.00 659.00
C 560.61 661.73 553.63 664.13 546.00 666.00
C 544.40 666.57 542.98 667.49 541.00 668.00
C 534.17 669.76 527.40 672.44 520.00 672.00
C 519.18 672.16 516.65 673.20 516.00 674.00
L 957.00 674.00
L 957.00 0.00
L 624.00 0.00
C 624.62 0.46 626.34 1.80 627.00 2.00
C 637.92 3.42 646.30 6.19 656.00 10.00
C 659.46 11.36 664.91 12.65 667.00 16.00
C 667.48 16.10 668.00 16.00 668.00 16.00
C 671.66 17.32 676.89 20.77 679.00 24.00
C 679.36 24.22 680.00 24.00 680.00 24.00
C 682.22 24.65 687.05 28.71 688.00 31.00
C 688.14 31.34 688.68 31.80 689.00 32.00
C 693.16 34.57 695.42 41.28 700.00 40.00
C 699.51 47.06 709.08 52.59 711.00 60.00
C 714.73 66.49 717.11 72.80 719.00 80.00
C 719.61 81.63 720.47 83.00 721.00 85.00
C 721.46 86.75 721.73 88.10 722.00 90.00
C 722.78 93.15 723.51 96.30 724.00 100.00
C 726.79 120.96 725.57 145.82 715.00 164.00
C 713.56 167.58 711.88 169.89 710.00 173.00
C 707.16 179.43 703.74 184.45 699.00 190.00
C 694.94 194.75 690.14 200.90 685.25 204.25 C 680.36 207.59 674.51 216.15 669.00 216.00
C 665.90 218.71 660.92 221.08 657.00 222.00
C 656.53 222.11 656.00 222.00 656.00 222.00
C 654.89 224.22 652.80 224.48 650.00 225.00
C 649.52 225.09 649.00 225.00 649.00 225.00
C 645.90 226.87 644.76 226.94 641.00 228.00
C 637.32 229.78 630.41 230.71 625.00 231.00
C 622.43 231.42 619.21 232.00 616.00 232.00
C 611.67 232.00 607.33 232.00 603.00 232.00
C 599.81 232.00 596.48 231.35 594.00 231.00
C 588.27 230.78 583.40 229.34 578.00 228.00
C 573.97 227.00 571.23 226.25 568.00 224.00
C 567.51 223.92 566.50 224.01 566.00 224.00
C 562.20 223.92 561.33 221.72 558.00 220.00
C 557.53 219.89 557.00 220.00 557.00 220.00
C 551.11 216.29 545.48 213.29 540.00 209.00
C 537.63 207.15 535.12 205.87 533.00 204.00
C 529.11 200.57 525.33 196.90 522.00 193.00
C 518.59 189.01 513.12 184.07 512.00 179.00
C 511.90 178.52 512.00 178.00 512.00 178.00
C 509.85 176.60 509.14 175.17 508.00 173.00
C 507.11 171.30 506.70 169.70 506.00 168.00
C 505.29 166.85 504.65 166.35 504.00 165.00
C 499.18 154.95 495.61 144.30 495.00 133.00
C 493.20 121.91 493.21 111.01 495.00 100.00
C 495.54 90.11 498.45 81.05 502.00 72.00
C 504.42 65.82 507.15 58.63 512.00 54.00
C 512.16 53.56 512.00 53.00 512.00 53.00
C 514.64 45.69 522.61 38.61 527.92 32.92 C 533.23 27.23 541.91 20.31 549.00 17.00
C 550.08 16.50 550.92 16.39 552.00 16.00
C 553.40 15.23 554.09 13.52 556.00 13.00
C 556.47 12.87 557.00 13.00 557.00 13.00
C 559.30 9.32 566.09 8.22 570.00 7.00
C 571.43 6.55 572.49 6.32 574.00 6.00
C 577.19 4.90 580.27 3.68 584.00 3.00
C 586.69 2.51 589.11 2.23 592.00 2.00
C 593.39 1.77 596.78 0.90 598.00 0.00
L 359.00 0.00
C 359.80 0.58 362.16 1.80 363.00 2.00
C 365.55 2.25 367.66 2.59 370.00 3.00
C 373.86 3.68 376.91 4.90 380.00 6.00
C 384.27 7.03 387.88 8.38 392.00 10.00
C 395.46 11.36 400.91 12.65 403.00 16.00
C 403.48 16.10 404.00 16.00 404.00 16.00
C 409.79 17.13 416.47 24.13 421.00 28.00
C 424.47 30.97 429.97 34.86 432.00 39.00
C 432.20 39.40 432.00 40.00 432.00 40.00
C 436.34 41.03 442.47 50.77 444.00 55.00
C 444.16 55.44 444.00 56.00 444.00 56.00
C 446.02 57.94 446.69 59.68 448.00 62.00
C 449.87 64.50 450.10 66.20 451.00 69.00
C 452.33 71.98 454.03 74.58 455.00 78.00
C 455.38 79.34 455.66 80.60 456.00 82.00
C 456.70 83.91 457.51 85.68 458.00 88.00
C 463.18 112.57 461.53 136.89 453.00 160.00
C 450.97 165.49 447.79 170.18 445.00 175.00
C 444.10 176.98 444.46 177.27 443.00 179.00
C 442.28 180.15 441.74 181.05 441.00 182.00
C 440.31 182.90 439.66 183.93 439.00 185.00
C 431.73 196.72 419.57 206.99 408.00 214.00
C 402.38 217.41 398.19 220.04 392.00 222.00
C 390.32 222.81 390.70 224.29 388.00 224.00
C 387.51 223.95 387.00 224.00 387.00 224.00
C 383.64 225.63 380.92 227.06 377.00 228.00
C 373.63 228.81 370.55 229.60 367.00 230.00
C 362.25 230.98 357.50 232.00 352.00 232.00
C 348.00 232.00 344.00 232.00 340.00 232.00
C 336.49 232.00 332.80 231.40 330.00 231.00
C 320.76 230.65 311.25 227.90 303.00 224.00
C 293.91 221.54 275.41 213.55 270.00 204.00
C 269.88 203.79 269.00 204.00 269.00 204.00
C 265.87 202.47 261.76 197.89 260.00 195.00
C 259.76 194.60 259.28 193.25 259.00 193.00
C 251.80 186.53 246.22 178.03 242.00 169.00
C 235.13 154.31 230.00 139.76 230.00 123.00
C 229.67 119.54 229.67 115.39 230.00 112.00
C 230.00 96.97 233.17 85.08 238.00 72.00
C 239.73 67.30 241.77 64.90 244.00 61.00
C 244.38 60.03 244.52 59.02 245.00 58.00
C 247.67 52.28 251.89 46.81 256.00 42.00
C 259.52 37.88 266.93 32.99 266.00 28.00
C 269.59 29.94 271.77 25.17 275.00 24.00
C 275.36 23.78 276.00 24.00 276.00 24.00
C 278.45 20.24 283.40 18.10 287.00 16.00
C 288.45 14.95 289.45 14.65 291.00 14.00
C 296.87 10.71 302.52 8.22 309.00 6.00
C 315.39 3.81 321.13 2.66 328.00 2.00
C 328.88 1.80 331.30 0.83 332.00 0.00
L 0.00 0.00
L 0.00 674.00 Z"/>
</g>
<g fill="None" fill-opacity="0.0" stroke="#BFECBF" stroke-opacity="0.77" stroke-width="0.3"><path d="
M 328.00 2.00 
C 339.58 0.88 351.41 0.88 363.00 2.00
C 362.16 1.80 359.80 0.58 359.00 0.00
L 332.00 0.00
C 331.30 0.83 328.88 1.80 328.00 2.00 Z"/>
</g>
<g fill="None" fill-opacity="0.0" stroke="#BFEAC3" stroke-opacity="0.77" stroke-width="0.3"><path d="
M 592.00 2.00 
C 603.55 1.08 615.46 0.50 627.00 2.00
C 626.34 1.80 624.62 0.46 624.00 0.00
L 598.00 0.00
C 596.78 0.90 593.39 1.77 592.00 2.00 Z"/>
</g>
<g fill="None" fill-opacity="0.0" stroke="#4F9350" stroke-opacity="1.00" stroke-width="0.3"><path d="
M 328.00 2.00 
C 321.13 2.66 315.39 3.81 309.00 6.00
C 303.28 8.67 297.04 11.48 291.00 14.00
C 289.45 14.65 288.45 14.95 287.00 16.00
C 283.40 18.60 279.87 21.59 276.00 24.00
C 276.00 24.00 275.36 23.78 275.00 24.00
C 270.75 30.08 263.88 34.29 259.00 40.00
C 254.15 45.68 248.84 51.97 245.00 58.00
C 244.52 59.02 244.38 60.03 244.00 61.00
C 242.49 64.92 239.76 68.52 238.00 72.00
C 233.17 85.08 230.00 96.97 230.00 112.00
C 230.00 115.67 230.00 119.33 230.00 123.00
C 230.00 139.76 235.13 154.31 242.00 169.00
C 246.60 176.83 252.62 186.10 259.00 193.00
C 262.15 196.40 268.17 199.60 270.00 204.00
C 279.37 212.67 291.95 218.77 303.00 224.00
C 311.25 227.90 320.76 230.65 330.00 231.00
C 333.35 231.13 337.36 231.74 340.00 232.00
C 344.00 232.00 348.00 232.00 352.00 232.00
C 356.44 231.57 362.05 230.55 367.00 230.00
C 370.55 229.60 373.63 228.81 377.00 228.00
C 380.19 226.75 383.08 224.08 387.00 224.00
C 387.00 224.00 387.51 223.95 388.00 224.00
C 389.24 222.72 390.28 222.54 392.00 222.00
C 398.19 220.04 402.38 217.41 408.00 214.00
C 418.55 205.84 430.64 195.73 439.00 185.00
C 439.66 183.93 440.31 182.90 441.00 182.00
C 441.73 180.78 442.06 180.11 443.00 179.00
C 444.46 177.27 444.10 176.98 445.00 175.00
C 447.35 169.83 450.56 164.82 453.00 160.00
C 461.53 136.89 463.18 112.57 458.00 88.00
C 457.46 86.23 456.52 84.14 456.00 82.00
C 455.66 80.60 455.38 79.34 455.00 78.00
C 453.83 75.15 452.02 72.20 451.00 69.00
C 450.10 66.20 449.87 64.50 448.00 62.00
C 446.57 60.10 444.49 58.51 444.00 56.00
C 444.00 56.00 444.16 55.44 444.00 55.00
C 440.42 52.67 433.97 44.02 432.00 40.00
C 432.00 40.00 432.20 39.40 432.00 39.00
C 428.40 36.48 425.28 32.81 422.00 30.00
C 416.77 25.53 407.51 21.40 404.00 16.00
C 404.00 16.00 403.48 16.10 403.00 16.00
C 399.16 15.16 395.30 11.76 392.00 10.00
C 387.88 8.38 384.27 7.03 380.00 6.00
C 376.66 5.20 372.97 3.86 370.00 3.00
C 367.66 2.59 365.55 2.25 363.00 2.00
C 351.41 0.88 339.58 0.88 328.00 2.00 Z"/>
</g>
<g fill="None" fill-opacity="0.0" stroke="#4F9350" stroke-opacity="1.00" stroke-width="0.3"><path d="
M 592.00 2.00 
C 589.11 2.23 586.69 2.51 584.00 3.00
C 580.93 3.93 577.49 5.26 574.00 6.00
C 572.49 6.32 571.43 6.55 570.00 7.00
C 565.93 8.82 561.62 11.91 557.00 13.00
C 557.00 13.00 556.47 12.87 556.00 13.00
C 554.94 15.06 553.94 15.30 552.00 16.00
C 550.92 16.39 550.08 16.50 549.00 17.00
C 534.62 27.05 524.39 41.11 512.00 53.00
C 512.00 53.00 512.16 53.56 512.00 54.00
C 509.77 60.19 504.99 66.39 502.00 72.00
C 498.45 81.05 495.54 90.11 495.00 100.00
C 494.39 111.22 494.39 121.75 495.00 133.00
C 495.61 144.30 499.18 154.95 504.00 165.00
C 504.95 166.33 505.32 166.34 506.00 168.00
C 506.70 169.70 507.11 171.30 508.00 173.00
C 509.44 175.04 511.07 175.64 512.00 178.00
C 512.00 178.00 511.90 178.52 512.00 179.00
C 516.18 183.01 519.35 188.38 523.00 193.00
C 525.65 196.35 528.82 199.28 532.00 202.00
C 534.68 204.29 537.39 206.96 540.00 209.00
C 544.63 212.62 553.96 215.13 557.00 220.00
C 557.00 220.00 557.53 219.89 558.00 220.00
C 561.09 220.73 563.42 222.73 566.00 224.00
C 566.50 224.01 567.51 223.92 568.00 224.00
C 571.48 224.60 574.98 226.95 578.00 228.00
C 583.40 229.34 588.27 230.78 594.00 231.00
C 597.03 231.12 600.68 231.78 603.00 232.00
C 607.33 232.00 611.67 232.00 616.00 232.00
C 618.35 231.77 622.01 231.16 625.00 231.00
C 630.41 230.71 637.32 229.78 641.00 228.00
C 643.64 226.72 645.63 225.13 649.00 225.00
C 649.00 225.00 649.52 225.09 650.00 225.00
C 651.75 223.50 653.78 222.91 656.00 222.00
C 656.00 222.00 656.53 222.11 657.00 222.00
C 660.55 219.15 664.92 217.25 669.00 215.00
C 680.17 208.84 689.80 199.20 699.00 190.00
C 703.74 184.45 707.16 179.43 710.00 173.00
C 711.41 169.81 713.38 166.79 715.00 164.00
C 725.57 145.82 726.79 120.96 724.00 100.00
C 723.31 97.02 722.49 93.45 722.00 90.00
C 721.73 88.10 721.46 86.75 721.00 85.00
C 720.45 83.52 719.48 81.83 719.00 80.00
C 717.11 72.80 714.73 66.49 711.00 60.00
C 703.73 51.06 696.33 41.40 689.00 32.00
C 688.68 31.80 688.14 31.34 688.00 31.00
C 685.20 28.52 682.24 27.21 680.00 24.00
C 680.00 24.00 679.36 24.22 679.00 24.00
C 675.41 21.76 670.31 19.55 668.00 16.00
C 668.00 16.00 667.48 16.10 667.00 16.00
C 663.12 15.15 659.18 11.75 656.00 10.00
C 646.30 6.19 637.92 3.42 627.00 2.00
C 615.46 0.50 603.55 1.08 592.00 2.00 Z"/>
</g>
<g fill="None" fill-opacity="0.0" stroke="#BED7B7" stroke-opacity="0.32" stroke-width="0.3"><path d="
M 380.00 6.00 
C 376.91 4.90 373.86 3.68 370.00 3.00
C 372.97 3.86 376.66 5.20 380.00 6.00 Z"/>
</g>
<g fill="None" fill-opacity="0.0" stroke="#BADEBA" stroke-opacity="0.31" stroke-width="0.3"><path d="
M 574.00 6.00 
C 577.49 5.26 580.93 3.93 584.00 3.00
C 580.27 3.68 577.19 4.90 574.00 6.00 Z"/>
</g>
<g fill="None" fill-opacity="0.0" stroke="#B2D6BA" stroke-opacity="0.38" stroke-width="0.3"><path d="
M 291.00 14.00 
C 297.04 11.48 303.28 8.67 309.00 6.00
C 302.52 8.22 296.87 10.71 291.00 14.00 Z"/>
</g>
<g fill="None" fill-opacity="0.0" stroke="#BEE1B9" stroke-opacity="0.31" stroke-width="0.3"><path d="
M 557.00 13.00 
C 561.62 11.91 565.93 8.82 570.00 7.00
C 566.09 8.22 559.30 9.32 557.00 13.00 Z"/>
</g>
<g fill="None" fill-opacity="0.0" stroke="#B9D0BA" stroke-opacity="0.34" stroke-width="0.3"><path d="
M 403.00 16.00 
C 400.91 12.65 395.46 11.36 392.00 10.00
C 395.30 11.76 399.16 15.16 403.00 16.00 Z"/>
</g>
<g fill="None" fill-opacity="0.0" stroke="#B9D6B7" stroke-opacity="0.35" stroke-width="0.3"><path d="
M 667.00 16.00 
C 664.91 12.65 659.46 11.36 656.00 10.00
C 659.18 11.75 663.12 15.15 667.00 16.00 Z"/>
</g>
<g fill="None" fill-opacity="0.0" stroke="#A7C3AC" stroke-opacity="0.49" stroke-width="0.3"><path d="
M 552.00 16.00 
C 553.94 15.30 554.94 15.06 556.00 13.00
C 554.09 13.52 553.40 15.23 552.00 16.00 Z"/>
</g>
<g fill="None" fill-opacity="0.0" stroke="#B7D5B5" stroke-opacity="0.38" stroke-width="0.3"><path d="
M 276.00 24.00 
C 279.87 21.59 283.40 18.60 287.00 16.00
C 283.40 18.10 278.45 20.24 276.00 24.00 Z"/>
</g>
<g fill="None" fill-opacity="0.0" stroke="#B1D6B2" stroke-opacity="0.36" stroke-width="0.3"><path d="
M 422.00 30.00 
C 421.54 29.51 421.40 28.43 421.00 28.00
C 416.47 24.13 409.79 17.13 404.00 16.00
C 407.51 21.40 416.77 25.53 422.00 30.00 Z"/>
</g>
<g fill="None" fill-opacity="0.0" stroke="#B1D2B3" stroke-opacity="0.40" stroke-width="0.3"><path d="
M 679.00 24.00 
C 676.89 20.77 671.66 17.32 668.00 16.00
C 670.31 19.55 675.41 21.76 679.00 24.00 Z"/>
</g>
<g fill="None" fill-opacity="0.0" stroke="#B5D7B6" stroke-opacity="0.36" stroke-width="0.3"><path d="
M 512.00 53.00 
C 524.39 41.11 534.62 27.05 549.00 17.00
C 541.91 20.31 533.23 27.23 527.92 32.92 C 522.61 38.61 514.64 45.69 512.00 53.00 Z"/>
</g>
<g fill="None" fill-opacity="0.0" stroke="#B6D6B7" stroke-opacity="0.25" stroke-width="0.3"><path d="
M 256.00 42.00 
C 256.83 41.24 258.22 40.72 259.00 40.00
C 263.88 34.29 270.75 30.08 275.00 24.00
C 271.77 25.17 269.59 29.94 266.00 28.00
C 266.93 32.99 259.52 37.88 256.00 42.00 Z"/>
</g>
<g fill="None" fill-opacity="0.0" stroke="#C1EDCF" stroke-opacity="0.18" stroke-width="0.3"><path d="
M 688.00 31.00 
C 687.05 28.71 682.22 24.65 680.00 24.00
C 682.24 27.21 685.20 28.52 688.00 31.00 Z"/>
</g>
<g fill="None" fill-opacity="0.0" stroke="#C2E5C9" stroke-opacity="0.23" stroke-width="0.3"><path d="
M 422.00 30.00 
C 425.28 32.81 428.40 36.48 432.00 39.00
C 429.97 34.86 424.47 30.97 421.00 28.00
C 421.40 28.43 421.54 29.51 422.00 30.00 Z"/>
</g>
<g fill="None" fill-opacity="0.0" stroke="#AED2B1" stroke-opacity="0.34" stroke-width="0.3"><path d="
M 711.00 60.00 
C 709.08 52.59 699.51 47.06 700.00 40.00
C 695.42 41.28 693.16 34.57 689.00 32.00
C 696.33 41.40 703.73 51.06 711.00 60.00 Z"/>
</g>
<g fill="None" fill-opacity="0.0" stroke="#B0CEAC" stroke-opacity="0.44" stroke-width="0.3"><path d="
M 256.00 42.00 
C 251.89 46.81 247.67 52.28 245.00 58.00
C 248.84 51.97 254.15 45.68 259.00 40.00
C 258.22 40.72 256.83 41.24 256.00 42.00 Z"/>
</g>
<g fill="None" fill-opacity="0.0" stroke="#B2D2B2" stroke-opacity="0.39" stroke-width="0.3"><path d="
M 444.00 55.00 
C 442.47 50.77 436.34 41.03 432.00 40.00
C 433.97 44.02 440.42 52.67 444.00 55.00 Z"/>
</g>
<g fill="None" fill-opacity="0.0" stroke="#B7D9BA" stroke-opacity="0.34" stroke-width="0.3"><path d="
M 502.00 72.00 
C 504.99 66.39 509.77 60.19 512.00 54.00
C 507.15 58.63 504.42 65.82 502.00 72.00 Z"/>
</g>
<g fill="None" fill-opacity="0.0" stroke="#B1D0B2" stroke-opacity="0.41" stroke-width="0.3"><path d="
M 448.00 62.00 
C 446.69 59.68 446.02 57.94 444.00 56.00
C 444.49 58.51 446.57 60.10 448.00 62.00 Z"/>
</g>
<g fill="None" fill-opacity="0.0" stroke="#CBE9C5" stroke-opacity="0.26" stroke-width="0.3"><path d="
M 238.00 72.00 
C 239.76 68.52 242.49 64.92 244.00 61.00
C 241.77 64.90 239.73 67.30 238.00 72.00 Z"/>
</g>
<g fill="None" fill-opacity="0.0" stroke="#B7DABA" stroke-opacity="0.35" stroke-width="0.3"><path d="
M 455.00 78.00 
C 454.03 74.58 452.33 71.98 451.00 69.00
C 452.02 72.20 453.83 75.15 455.00 78.00 Z"/>
</g>
<g fill="None" fill-opacity="0.0" stroke="#B5DEB3" stroke-opacity="0.40" stroke-width="0.3"><path d="
M 721.00 85.00 
C 720.47 83.00 719.61 81.63 719.00 80.00
C 719.48 81.83 720.45 83.52 721.00 85.00 Z"/>
</g>
<g fill="None" fill-opacity="0.0" stroke="#C5DFBA" stroke-opacity="0.28" stroke-width="0.3"><path d="
M 458.00 88.00 
C 457.51 85.68 456.70 83.91 456.00 82.00
C 456.52 84.14 457.46 86.23 458.00 88.00 Z"/>
</g>
<g fill="None" fill-opacity="0.0" stroke="#B2D6B3" stroke-opacity="0.38" stroke-width="0.3"><path d="
M 724.00 100.00 
C 723.51 96.30 722.78 93.15 722.00 90.00
C 722.49 93.45 723.31 97.02 724.00 100.00 Z"/>
</g>
<g fill="None" fill-opacity="0.0" stroke="#C1DBB9" stroke-opacity="0.31" stroke-width="0.3"><path d="
M 495.00 133.00 
C 494.39 121.75 494.39 111.22 495.00 100.00
C 493.21 111.01 493.20 121.91 495.00 133.00 Z"/>
</g>
<g fill="None" fill-opacity="0.0" stroke="#E1F3D0" stroke-opacity="0.07" stroke-width="0.3"><path d="
M 230.00 123.00 
C 230.00 119.33 230.00 115.67 230.00 112.00
C 229.67 115.39 229.67 119.54 230.00 123.00 Z"/>
</g>
<g fill="None" fill-opacity="0.0" stroke="#B7D7B7" stroke-opacity="0.36" stroke-width="0.3"><path d="
M 445.00 175.00 
C 447.79 170.18 450.97 165.49 453.00 160.00
C 450.56 164.82 447.35 169.83 445.00 175.00 Z"/>
</g>
<g fill="None" fill-opacity="0.0" stroke="#C3E0C0" stroke-opacity="0.26" stroke-width="0.3"><path d="
M 710.00 173.00 
C 711.88 169.89 713.56 167.58 715.00 164.00
C 713.38 166.79 711.41 169.81 710.00 173.00 Z"/>
</g>
<g fill="None" fill-opacity="0.0" stroke="#B3D7B3" stroke-opacity="0.40" stroke-width="0.3"><path d="
M 506.00 168.00 
C 505.32 166.34 504.95 166.33 504.00 165.00
C 504.65 166.35 505.29 166.85 506.00 168.00 Z"/>
</g>
<g fill="None" fill-opacity="0.0" stroke="#B2D4B3" stroke-opacity="0.40" stroke-width="0.3"><path d="
M 259.00 193.00 
C 252.62 186.10 246.60 176.83 242.00 169.00
C 246.22 178.03 251.80 186.53 259.00 193.00 Z"/>
</g>
<g fill="None" fill-opacity="0.0" stroke="#AEC1AE" stroke-opacity="0.44" stroke-width="0.3"><path d="
M 512.00 178.00 
C 511.07 175.64 509.44 175.04 508.00 173.00
C 509.14 175.17 509.85 176.60 512.00 178.00 Z"/>
</g>
<g fill="None" fill-opacity="0.0" stroke="#B8DEB8" stroke-opacity="0.33" stroke-width="0.3"><path d="
M 441.00 182.00 
C 441.74 181.05 442.28 180.15 443.00 179.00
C 442.06 180.11 441.73 180.78 441.00 182.00 Z"/>
</g>
<g fill="None" fill-opacity="0.0" stroke="#ACCDAD" stroke-opacity="0.44" stroke-width="0.3"><path d="
M 522.00 193.00 
C 522.16 193.23 523.00 193.00 523.00 193.00
C 519.35 188.38 516.18 183.01 512.00 179.00
C 513.12 184.07 518.59 189.01 522.00 193.00 Z"/>
</g>
<g fill="None" fill-opacity="0.0" stroke="#B9D9BA" stroke-opacity="0.33" stroke-width="0.3"><path d="
M 408.00 214.00 
C 419.57 206.99 431.73 196.72 439.00 185.00
C 430.64 195.73 418.55 205.84 408.00 214.00 Z"/>
</g>
<g fill="None" fill-opacity="0.0" stroke="#BCDCBB" stroke-opacity="0.32" stroke-width="0.3"><path d="
M 669.00 215.00 
C 668.79 215.11 669.00 216.00 669.00 216.00
C 674.51 216.15 680.36 207.59 685.25 204.25 C 690.14 200.90 694.94 194.75 699.00 190.00
C 689.80 199.20 680.17 208.84 669.00 215.00 Z"/>
</g>
<g fill="None" fill-opacity="0.0" stroke="#97BA97" stroke-opacity="0.64" stroke-width="0.3"><path d="
M 260.00 195.00 
C 262.87 198.07 266.57 200.51 269.00 204.00
C 269.00 204.00 269.88 203.79 270.00 204.00
C 268.17 199.60 262.15 196.40 259.00 193.00
C 259.28 193.25 259.76 194.60 260.00 195.00 Z"/>
</g>
<g fill="None" fill-opacity="0.0" stroke="#D2EECF" stroke-opacity="0.11" stroke-width="0.3"><path d="
M 533.00 204.00 
C 532.61 203.50 532.38 202.41 532.00 202.00
C 528.82 199.28 525.65 196.35 523.00 193.00
C 523.00 193.00 522.16 193.23 522.00 193.00
C 525.33 196.90 529.11 200.57 533.00 204.00 Z"/>
</g>
<g fill="None" fill-opacity="0.0" stroke="#D1EFD1" stroke-opacity="0.07" stroke-width="0.3"><path d="
M 269.00 204.00 
C 266.57 200.51 262.87 198.07 260.00 195.00
C 261.76 197.89 265.87 202.47 269.00 204.00 Z"/>
</g>
<g fill="None" fill-opacity="0.0" stroke="#B0CDA7" stroke-opacity="0.46" stroke-width="0.3"><path d="
M 533.00 204.00 
C 535.12 205.87 537.63 207.15 540.00 209.00
C 537.39 206.96 534.68 204.29 532.00 202.00
C 532.38 202.41 532.61 203.50 533.00 204.00 Z"/>
</g>
<g fill="None" fill-opacity="0.0" stroke="#B9DFBA" stroke-opacity="0.32" stroke-width="0.3"><path d="
M 303.00 224.00 
C 291.95 218.77 279.37 212.67 270.00 204.00
C 275.41 213.55 293.91 221.54 303.00 224.00 Z"/>
</g>
<g fill="None" fill-opacity="0.0" stroke="#C1DFC0" stroke-opacity="0.27" stroke-width="0.3"><path d="
M 557.00 220.00 
C 553.96 215.13 544.63 212.62 540.00 209.00
C 545.48 213.29 551.11 216.29 557.00 220.00 Z"/>
</g>
<g fill="None" fill-opacity="0.0" stroke="#ABCAA8" stroke-opacity="0.47" stroke-width="0.3"><path d="
M 657.00 222.00 
C 660.92 221.08 665.90 218.71 669.00 216.00
C 669.00 216.00 668.79 215.11 669.00 215.00
C 664.92 217.25 660.55 219.15 657.00 222.00 Z"/>
</g>
<g fill="None" fill-opacity="0.0" stroke="#BAE0BB" stroke-opacity="0.29" stroke-width="0.3"><path d="
M 566.00 224.00 
C 563.42 222.73 561.09 220.73 558.00 220.00
C 561.33 221.72 562.20 223.92 566.00 224.00 Z"/>
</g>
<g fill="None" fill-opacity="0.0" stroke="#A9D4A9" stroke-opacity="0.47" stroke-width="0.3"><path d="
M 388.00 224.00 
C 390.70 224.29 390.32 222.81 392.00 222.00
C 390.28 222.54 389.24 222.72 388.00 224.00 Z"/>
</g>
<g fill="None" fill-opacity="0.0" stroke="#C2E5B4" stroke-opacity="0.34" stroke-width="0.3"><path d="
M 650.00 225.00 
C 652.80 224.48 654.89 224.22 656.00 222.00
C 653.78 222.91 651.75 223.50 650.00 225.00 Z"/>
</g>
<g fill="None" fill-opacity="0.0" stroke="#A5C1A5" stroke-opacity="0.52" stroke-width="0.3"><path d="
M 377.00 228.00 
C 380.92 227.06 383.64 225.63 387.00 224.00
C 383.08 224.08 380.19 226.75 377.00 228.00 Z"/>
</g>
<g fill="None" fill-opacity="0.0" stroke="#B0D6B2" stroke-opacity="0.37" stroke-width="0.3"><path d="
M 578.00 228.00 
C 574.98 226.95 571.48 224.60 568.00 224.00
C 571.23 226.25 573.97 227.00 578.00 228.00 Z"/>
</g>
<g fill="None" fill-opacity="0.0" stroke="#C8E2B3" stroke-opacity="0.38" stroke-width="0.3"><path d="
M 641.00 228.00 
C 644.76 226.94 645.90 226.87 649.00 225.00
C 645.63 225.13 643.64 226.72 641.00 228.00 Z"/>
</g>
<g fill="None" fill-opacity="0.0" stroke="#B1D5AE" stroke-opacity="0.43" stroke-width="0.3"><path d="
M 352.00 232.00 
C 357.50 232.00 362.25 230.98 367.00 230.00
C 362.05 230.55 356.44 231.57 352.00 232.00 Z"/>
</g>
<g fill="None" fill-opacity="0.0" stroke="#A8D4A8" stroke-opacity="0.45" stroke-width="0.3"><path d="
M 340.00 232.00 
C 337.36 231.74 333.35 231.13 330.00 231.00
C 332.80 231.40 336.49 232.00 340.00 232.00 Z"/>
</g>
<g fill="None" fill-opacity="0.0" stroke="#B3D8B2" stroke-opacity="0.40" stroke-width="0.3"><path d="
M 603.00 232.00 
C 600.68 231.78 597.03 231.12 594.00 231.00
C 596.48 231.35 599.81 232.00 603.00 232.00 Z"/>
</g>
<g fill="None" fill-opacity="0.0" stroke="#B2DCAD" stroke-opacity="0.40" stroke-width="0.3"><path d="
M 616.00 232.00 
C 619.21 232.00 622.43 231.42 625.00 231.00
C 622.01 231.16 618.35 231.77 616.00 232.00 Z"/>
</g>
<g fill="None" fill-opacity="0.0" stroke="#DBFBD3" stroke-opacity="0.09" stroke-width="0.3"><path d="
M 624.00 277.00 
C 624.50 277.00 625.00 277.00 625.00 277.00
C 645.72 277.00 667.38 278.85 688.00 277.00
C 687.96 277.00 688.00 276.00 688.00 276.00
C 666.84 276.00 644.40 275.03 624.00 277.00 Z"/>
</g>
<g fill="None" fill-opacity="0.0" stroke="#C9E8BE" stroke-opacity="0.29" stroke-width="0.3"><path d="
M 688.00 277.00 
C 693.39 276.48 700.70 276.58 706.00 277.00 C 711.30 277.42 719.99 275.04 724.00 278.00
C 724.32 278.24 725.00 278.00 725.00 278.00
C 724.77 273.95 711.20 276.46 707.00 276.00 C 702.80 275.54 692.73 276.00 688.00 276.00
C 688.00 276.00 687.96 277.00 688.00 277.00 Z"/>
</g>
<g fill="None" fill-opacity="0.0" stroke="#FFFFBF" stroke-opacity="0.02" stroke-width="0.3"><path d="
M 376.00 278.00 
C 381.33 278.00 386.67 278.00 392.00 278.00
C 391.96 278.00 392.00 277.00 392.00 277.00
C 386.60 277.00 380.71 277.54 376.00 278.00 Z"/>
</g>
<g fill="None" fill-opacity="0.0" stroke="#E3FFE3" stroke-opacity="0.04" stroke-width="0.3"><path d="
M 392.00 278.00 
C 397.33 278.00 402.67 278.00 408.00 278.00
C 407.96 278.00 408.00 277.00 408.00 277.00
C 402.67 277.00 397.33 277.00 392.00 277.00
C 392.00 277.00 391.96 278.00 392.00 278.00 Z"/>
</g>
<g fill="None" fill-opacity="0.0" stroke="#CAE2C5" stroke-opacity="0.23" stroke-width="0.3"><path d="
M 408.00 278.00 
C 437.33 278.00 466.67 278.00 496.00 278.00
C 495.96 278.00 496.00 277.00 496.00 277.00
C 466.67 277.00 437.33 277.00 408.00 277.00
C 408.00 277.00 407.96 278.00 408.00 278.00 Z"/>
</g>
<g fill="None" fill-opacity="0.0" stroke="#B4CDAE" stroke-opacity="0.43" stroke-width="0.3"><path d="
M 496.00 278.00 
C 512.00 278.00 528.00 278.00 544.00 278.00
C 543.96 278.00 544.00 277.00 544.00 277.00
C 528.00 277.00 512.00 277.00 496.00 277.00
C 496.00 277.00 495.96 278.00 496.00 278.00 Z"/>
</g>
<g fill="None" fill-opacity="0.0" stroke="#A2BC9B" stroke-opacity="0.60" stroke-width="0.3"><path d="
M 544.00 278.00 
C 571.00 278.00 598.00 278.00 625.00 278.00
C 624.96 278.00 625.00 277.00 625.00 277.00
C 625.00 277.00 624.50 277.00 624.00 277.00
C 597.33 277.00 570.67 277.00 544.00 277.00
C 544.00 277.00 543.96 278.00 544.00 278.00 Z"/>
</g>
<g fill="None" fill-opacity="0.0" stroke="#92B08B" stroke-opacity="1.00" stroke-width="0.3"><path d="
M 625.00 278.00 
C 645.82 278.00 668.01 278.93 688.00 277.00
C 667.38 278.85 645.72 277.00 625.00 277.00
C 625.00 277.00 624.96 278.00 625.00 278.00 Z"/>
</g>
<g fill="None" fill-opacity="0.0" stroke="#16a34a" stroke-opacity="1.00" stroke-width="0.3"><path d="
M 625.00 278.00 
C 598.00 278.00 571.00 278.00 544.00 278.00
C 528.00 278.00 512.00 278.00 496.00 278.00
C 466.67 278.00 437.33 278.00 408.00 278.00
C 402.67 278.00 397.33 278.00 392.00 278.00
C 386.67 278.00 381.33 278.00 376.00 278.00
C 365.33 278.00 354.67 278.00 344.00 278.00
C 336.67 278.71 328.03 279.00 320.00 279.00
C 306.47 280.31 288.90 278.79 275.00 280.00 C 261.10 281.21 242.33 275.73 231.00 282.00
C 231.00 294.94 231.18 308.85 230.00 321.00
C 229.99 336.67 230.00 352.33 230.00 368.00
C 230.00 394.67 230.00 421.33 230.00 448.00
C 230.00 468.33 234.83 488.26 241.00 507.00
C 242.60 510.17 243.16 511.22 244.00 515.00
C 245.35 521.09 248.47 527.26 251.00 533.00
C 253.02 536.34 254.73 538.05 256.00 542.00
C 258.89 551.03 264.64 559.18 270.00 567.00
C 278.56 576.26 285.08 591.36 296.00 598.00
C 296.35 598.21 297.82 598.77 298.00 599.00
C 294.17 581.70 299.70 562.83 298.00 545.00 C 296.30 527.17 298.77 508.10 298.00 490.00 C 297.23 471.90 298.36 453.23 298.00 435.00 C 297.64 416.77 298.19 398.28 298.00 380.00 C 297.81 361.72 298.14 343.29 298.00 325.00
C 309.78 326.00 320.51 330.23 331.23 334.77 C 341.95 339.31 349.33 343.89 358.25 351.75 C 367.16 359.61 375.95 348.88 385.08 343.08 C 394.21 337.28 405.17 334.44 415.69 329.69 C 426.21 324.95 440.03 323.79 452.00 322.00 C 463.97 320.22 480.89 319.00 493.00 321.00 C 505.11 323.00 517.98 324.75 528.68 329.32 C 539.38 333.90 549.64 336.93 559.08 342.92 C 568.52 348.90 576.53 354.31 585.08 360.92 C 593.62 367.53 599.98 374.86 606.92 383.08 C 613.86 391.30 618.50 400.42 623.97 410.03 C 629.45 419.64 634.48 428.84 637.78 440.22 C 641.07 451.60 645.35 462.89 646.00 476.00 C 646.64 489.12 645.70 506.06 646.00 520.00 C 646.30 533.94 645.84 549.71 646.00 564.00 C 646.16 578.29 645.88 593.62 646.00 608.00
C 646.16 607.77 647.00 608.00 647.00 608.00
C 647.00 608.00 647.54 608.13 648.00 608.00
C 650.02 604.21 652.24 602.00 656.00 600.00
C 656.00 600.00 655.80 599.40 656.00 599.00
C 658.68 593.53 667.11 585.42 672.00 582.00
C 672.00 582.00 671.91 581.48 672.00 581.00
C 672.96 576.06 679.20 571.15 682.00 568.00
C 686.04 561.74 690.42 555.82 693.00 549.00
C 695.47 542.48 699.59 535.69 703.00 530.00
C 713.09 506.63 723.00 480.13 723.00 454.00
C 723.00 447.29 723.42 439.95 724.00 434.00
C 723.99 422.67 724.00 411.33 724.00 400.00
C 724.00 381.33 724.00 362.67 724.00 344.00
C 724.00 322.30 722.05 299.60 724.00 278.00
C 719.99 275.04 711.30 277.42 706.00 277.00 C 700.70 276.58 693.39 276.48 688.00 277.00
C 668.01 278.93 645.82 278.00 625.00 278.00 Z"/>
</g>
<g fill="None" fill-opacity="0.0" stroke="#B8D7B0" stroke-opacity="0.41" stroke-width="0.3"><path d="
M 230.00 280.00 
C 230.00 280.02 231.00 280.00 231.00 280.00
C 236.46 275.96 247.85 279.96 255.00 279.00 C 262.15 278.04 272.55 279.00 280.00 279.00
C 279.96 279.00 280.00 278.00 280.00 278.00
C 274.72 278.00 267.04 277.84 262.00 278.00 C 256.96 278.16 249.17 277.54 245.00 278.00 C 240.83 278.46 230.23 276.05 230.00 280.00 Z"/>
</g>
<g fill="None" fill-opacity="0.0" stroke="#9FC097" stroke-opacity="0.63" stroke-width="0.3"><path d="
M 280.00 279.00 
C 293.33 279.00 306.67 279.00 320.00 279.00
C 328.03 279.00 336.67 278.71 344.00 278.00
C 322.67 278.00 301.33 278.00 280.00 278.00
C 280.00 278.00 279.96 279.00 280.00 279.00 Z"/>
</g>
<g fill="None" fill-opacity="0.0" stroke="#AECDA6" stroke-opacity="0.50" stroke-width="0.3"><path d="
M 724.00 344.00 
C 724.00 343.96 725.00 344.00 725.00 344.00
C 725.00 322.29 726.92 299.61 725.00 278.00
C 725.00 278.00 724.32 278.24 724.00 278.00
C 722.05 299.60 724.00 322.30 724.00 344.00 Z"/>
</g>
<g fill="None" fill-opacity="0.0" stroke="#97B58E" stroke-opacity="1.00" stroke-width="0.3"><path d="
M 231.00 280.00 
C 231.23 280.16 231.00 281.50 231.00 282.00
C 242.33 275.73 261.10 281.21 275.00 280.00 C 288.90 278.79 306.47 280.31 320.00 279.00
C 306.67 279.00 293.33 279.00 280.00 279.00
C 272.55 279.00 262.15 278.04 255.00 279.00 C 247.85 279.96 236.46 275.96 231.00 280.00 Z"/>
</g>
<g fill="None" fill-opacity="0.0" stroke="#9FBE94" stroke-opacity="0.65" stroke-width="0.3"><path d="
M 230.00 320.00 
C 230.00 320.50 230.00 321.00 230.00 321.00
C 231.18 308.85 231.00 294.94 231.00 282.00
C 231.00 281.50 231.23 280.16 231.00 280.00
C 231.00 280.00 230.00 280.02 230.00 280.00
C 230.47 292.78 229.99 306.56 230.00 320.00 Z"/>
</g>
<g fill="None" fill-opacity="0.0" stroke="#E7FCCC" stroke-opacity="0.06" stroke-width="0.3"><path d="
M 229.00 368.00 
C 229.00 367.96 230.00 368.00 230.00 368.00
C 230.00 352.33 229.99 336.67 230.00 321.00
C 230.00 321.00 230.00 320.50 230.00 320.00
C 228.54 335.09 229.00 352.10 229.00 368.00 Z"/>
</g>
<g fill="None" fill-opacity="0.0" stroke="#4E934F" stroke-opacity="1.00" stroke-width="0.3"><path d="
M 298.00 599.00 
C 303.30 605.71 309.93 611.77 316.00 618.00
C 317.11 618.94 317.97 619.28 319.00 620.00
C 325.63 624.67 332.03 629.85 338.00 635.00
C 341.22 637.12 343.62 638.59 347.00 640.00
C 350.68 641.53 357.93 644.69 360.00 648.00
C 360.00 648.00 360.64 647.77 361.00 648.00
C 363.31 649.45 365.91 650.75 368.00 652.00
C 371.64 653.57 374.33 654.89 378.00 656.00
C 380.33 656.71 382.06 658.02 384.00 659.00
C 389.18 660.71 393.69 662.78 399.00 664.00
C 401.21 664.51 402.22 665.18 404.00 666.00
C 406.87 666.91 408.96 667.56 412.00 668.00
C 414.82 668.41 416.69 669.22 419.00 670.00
C 422.59 670.76 426.45 671.10 430.00 672.00
C 434.36 669.07 429.76 656.85 431.00 651.00 C 432.24 645.15 430.43 634.81 431.00 628.00 C 431.57 621.19 430.72 612.21 431.00 605.00 C 431.28 597.79 430.85 590.44 431.00 583.00 C 431.15 575.56 430.88 567.60 431.00 560.00 C 431.12 552.40 430.82 544.72 431.00 537.00 C 431.18 529.28 430.62 522.99 431.00 515.00 C 431.38 507.01 430.22 500.54 431.00 492.00 C 431.78 483.46 431.32 483.30 436.31 474.31 C 441.29 465.31 451.37 456.87 461.22 454.22 C 471.08 451.58 471.85 452.41 481.69 454.31 C 491.54 456.20 502.06 464.96 507.75 473.25 C 513.45 481.53 512.11 481.98 513.98 490.02 C 515.84 498.07 513.14 505.23 514.00 513.00 C 514.86 520.77 513.63 527.35 514.00 535.00 C 514.37 542.65 513.83 550.37 514.00 558.00 C 514.17 565.63 513.92 573.42 514.00 581.00 C 514.08 588.58 513.97 595.42 514.00 603.00 C 514.03 610.58 513.98 618.37 514.00 626.00 C 514.02 633.63 513.99 641.35 514.00 649.00 C 514.01 656.65 513.99 664.35 514.00 672.00
C 516.00 672.00 518.00 672.00 520.00 672.00
C 527.40 672.44 534.17 669.76 541.00 668.00
C 542.49 667.46 544.15 666.45 546.00 666.00
C 553.63 664.13 560.61 661.73 568.00 659.00
C 570.02 657.98 571.46 656.44 574.00 656.00
C 574.49 655.92 575.53 656.13 576.00 656.00
C 577.89 654.47 578.60 653.88 581.00 653.00
C 584.92 651.55 588.19 649.91 592.00 648.00
C 596.18 645.11 600.13 642.22 605.00 640.00
C 606.99 639.09 607.32 639.34 609.00 638.00
C 610.38 636.90 611.04 635.53 613.00 635.00
C 613.00 635.00 613.56 635.16 614.00 635.00
C 621.24 623.89 638.07 619.34 646.00 608.00
C 645.88 593.62 646.16 578.29 646.00 564.00 C 645.84 549.71 646.30 533.94 646.00 520.00 C 645.70 506.06 646.64 489.12 646.00 476.00 C 645.35 462.89 641.07 451.60 637.78 440.22 C 634.48 428.84 629.45 419.64 623.97 410.03 C 618.50 400.42 613.86 391.30 606.92 383.08 C 599.98 374.86 593.62 367.53 585.08 360.92 C 576.53 354.31 568.52 348.90 559.08 342.92 C 549.64 336.93 539.38 333.90 528.68 329.32 C 517.98 324.75 505.11 323.00 493.00 321.00 C 480.89 319.00 463.97 320.22 452.00 322.00 C 440.03 323.79 426.21 324.95 415.69 329.69 C 405.17 334.44 394.21 337.28 385.08 343.08 C 375.95 348.88 367.16 359.61 358.25 351.75 C 349.33 343.89 341.95 339.31 331.23 334.77 C 320.51 330.23 309.78 326.00 298.00 325.00
C 298.14 343.29 297.81 361.72 298.00 380.00 C 298.19 398.28 297.64 416.77 298.00 435.00 C 298.36 453.23 297.23 471.90 298.00 490.00 C 298.77 508.10 296.30 527.17 298.00 545.00 C 299.70 562.83 294.17 581.70 298.00 599.00 Z"/>
</g>
<g fill="None" fill-opacity="0.0" stroke="#C4DCBE" stroke-opacity="0.29" stroke-width="0.3"><path d="
M 724.00 400.00 
C 724.00 399.96 725.00 400.00 725.00 400.00
C 725.00 381.33 725.00 362.67 725.00 344.00
C 725.00 344.00 724.00 343.96 724.00 344.00
C 724.00 362.67 724.00 381.33 724.00 400.00 Z"/>
</g>
<g fill="None" fill-opacity="0.0" stroke="#C8E6C1" stroke-opacity="0.25" stroke-width="0.3"><path d="
M 230.00 448.00 
C 230.00 421.33 230.00 394.67 230.00 368.00
C 230.00 368.00 229.00 367.96 229.00 368.00
C 229.00 394.41 227.52 422.38 230.00 448.00 Z"/>
</g>
<g fill="None" fill-opacity="0.0" stroke="#DDF7D2" stroke-opacity="0.07" stroke-width="0.3"><path d="
M 724.00 434.00 
C 724.00 434.50 724.00 435.00 724.00 435.00
C 725.05 424.15 725.00 411.63 725.00 400.00
C 725.00 400.00 724.00 399.96 724.00 400.00
C 724.00 411.33 723.99 422.67 724.00 434.00 Z"/>
</g>
<g fill="None" fill-opacity="0.0" stroke="#B2CFA6" stroke-opacity="0.48" stroke-width="0.3"><path d="
M 723.00 454.00 
C 723.54 448.38 723.99 441.38 724.00 435.00
C 724.00 435.00 724.00 434.50 724.00 434.00
C 723.42 439.95 723.00 447.29 723.00 454.00 Z"/>
</g>
<g fill="None" fill-opacity="0.0" stroke="#83BB75" stroke-opacity="1.00" stroke-width="0.3"><path d="
M 430.00 672.00 
C 430.88 672.22 433.18 673.40 434.00 674.00
L 516.00 674.00
C 516.65 673.20 519.18 672.16 520.00 672.00
C 518.00 672.00 516.00 672.00 514.00 672.00
C 513.99 664.35 514.01 656.65 514.00 649.00 C 513.99 641.35 514.02 633.63 514.00 626.00 C 513.98 618.37 514.03 610.58 514.00 603.00 C 513.97 595.42 514.08 588.58 514.00 581.00 C 513.92 573.42 514.17 565.63 514.00 558.00 C 513.83 550.37 514.37 542.65 514.00 535.00 C 513.63 527.35 514.86 520.77 514.00 513.00 C 513.14 505.23 515.84 498.07 513.98 490.02 C 512.11 481.98 513.45 481.53 507.75 473.25 C 502.06 464.96 491.54 456.20 481.69 454.31 C 471.85 452.41 471.08 451.58 461.22 454.22 C 451.37 456.87 441.29 465.31 436.31 474.31 C 431.32 483.30 431.78 483.46 431.00 492.00 C 430.22 500.54 431.38 507.01 431.00 515.00 C 430.62 522.99 431.18 529.28 431.00 537.00 C 430.82 544.72 431.12 552.40 431.00 560.00 C 430.88 567.60 431.15 575.56 431.00 583.00 C 430.85 590.44 431.28 597.79 431.00 605.00 C 430.72 612.21 431.57 621.19 431.00 628.00 C 430.43 634.81 432.24 645.15 431.00 651.00 C 429.76 656.85 434.36 669.07 430.00 672.00 Z"/>
</g>
<g fill="None" fill-opacity="0.0" stroke="#C7E3BC" stroke-opacity="0.29" stroke-width="0.3"><path d="
M 244.00 515.00 
C 243.16 511.22 242.60 510.17 241.00 507.00
C 241.90 509.72 243.08 512.52 244.00 515.00 Z"/>
</g>
<g fill="None" fill-opacity="0.0" stroke="#D0EAC4" stroke-opacity="0.22" stroke-width="0.3"><path d="
M 693.00 549.00 
C 696.17 542.79 699.99 536.98 703.00 530.00
C 699.59 535.69 695.47 542.48 693.00 549.00 Z"/>
</g>
<g fill="None" fill-opacity="0.0" stroke="#BCD3B8" stroke-opacity="0.34" stroke-width="0.3"><path d="
M 256.00 542.00 
C 254.73 538.05 253.02 536.34 251.00 533.00
C 252.39 536.15 254.58 539.12 256.00 542.00 Z"/>
</g>
<g fill="None" fill-opacity="0.0" stroke="#C3DEBC" stroke-opacity="0.31" stroke-width="0.3"><path d="
M 296.00 599.00 
C 295.80 598.60 296.00 598.00 296.00 598.00
C 285.08 591.36 278.56 576.26 270.00 567.00
C 273.70 572.39 277.63 579.73 282.23 583.77 C 286.83 587.81 290.15 597.77 296.00 599.00 Z"/>
</g>
<g fill="None" fill-opacity="0.0" stroke="#C5DEBD" stroke-opacity="0.29" stroke-width="0.3"><path d="
M 672.00 581.00 
C 676.44 577.90 679.11 572.47 682.00 568.00
C 679.20 571.15 672.96 576.06 672.00 581.00 Z"/>
</g>
<g fill="None" fill-opacity="0.0" stroke="#CEE7C3" stroke-opacity="0.24" stroke-width="0.3"><path d="
M 656.00 599.00 
C 661.09 597.34 670.10 586.92 672.00 582.00
C 667.11 585.42 658.68 593.53 656.00 599.00 Z"/>
</g>
<g fill="None" fill-opacity="0.0" stroke="#A8CBA9" stroke-opacity="0.49" stroke-width="0.3"><path d="
M 296.00 599.00 
C 299.63 606.43 309.93 612.86 316.00 618.00
C 309.93 611.77 303.30 605.71 298.00 599.00
C 297.82 598.77 296.35 598.21 296.00 598.00
C 296.00 598.00 295.80 598.60 296.00 599.00 Z"/>
</g>
<g fill="None" fill-opacity="0.0" stroke="#CBE7BF" stroke-opacity="0.25" stroke-width="0.3"><path d="
M 648.00 608.00 
C 650.09 607.39 655.39 602.09 656.00 600.00
C 652.24 602.00 650.02 604.21 648.00 608.00 Z"/>
</g>
<g fill="None" fill-opacity="0.0" stroke="#B4D4B4" stroke-opacity="0.38" stroke-width="0.3"><path d="
M 614.00 635.00 
C 620.38 632.69 625.87 626.40 631.30 622.30 C 636.74 618.20 643.02 613.69 647.00 608.00
C 647.00 608.00 646.16 607.77 646.00 608.00
C 638.07 619.34 621.24 623.89 614.00 635.00 Z"/>
</g>
<g fill="None" fill-opacity="0.0" stroke="#BBDCB5" stroke-opacity="0.36" stroke-width="0.3"><path d="
M 338.00 635.00 
C 332.03 629.85 325.63 624.67 319.00 620.00
C 324.21 625.37 330.89 630.32 338.00 635.00 Z"/>
</g>
<g fill="None" fill-opacity="0.0" stroke="#B7D7B8" stroke-opacity="0.34" stroke-width="0.3"><path d="
M 609.00 638.00 
C 610.68 636.91 611.78 636.68 613.00 635.00
C 611.04 635.53 610.38 636.90 609.00 638.00 Z"/>
</g>
<g fill="None" fill-opacity="0.0" stroke="#BAD9B8" stroke-opacity="0.35" stroke-width="0.3"><path d="
M 360.00 648.00 
C 357.93 644.69 350.68 641.53 347.00 640.00
C 351.09 642.48 354.95 646.89 360.00 648.00 Z"/>
</g>
<g fill="None" fill-opacity="0.0" stroke="#B4D5BA" stroke-opacity="0.36" stroke-width="0.3"><path d="
M 592.00 648.00 
C 596.59 645.70 600.74 642.61 605.00 640.00
C 600.13 642.22 596.18 645.11 592.00 648.00 Z"/>
</g>
<g fill="None" fill-opacity="0.0" stroke="#C0E4BE" stroke-opacity="0.28" stroke-width="0.3"><path d="
M 368.00 652.00 
C 365.91 650.75 363.31 649.45 361.00 648.00
C 359.57 650.68 365.72 651.01 368.00 652.00 Z"/>
</g>
<g fill="None" fill-opacity="0.0" stroke="#C5DAB4" stroke-opacity="0.31" stroke-width="0.3"><path d="
M 576.00 656.00 
C 577.92 655.47 579.45 653.72 581.00 653.00
C 578.60 653.88 577.89 654.47 576.00 656.00 Z"/>
</g>
<g fill="None" fill-opacity="0.0" stroke="#BFD4B5" stroke-opacity="0.33" stroke-width="0.3"><path d="
M 384.00 659.00 
C 382.06 658.02 380.33 656.71 378.00 656.00
C 380.00 656.94 381.55 658.19 384.00 659.00 Z"/>
</g>
<g fill="None" fill-opacity="0.0" stroke="#BDD6BD" stroke-opacity="0.29" stroke-width="0.3"><path d="
M 568.00 659.00 
C 570.22 658.18 572.06 656.95 574.00 656.00
C 571.46 656.44 570.02 657.98 568.00 659.00 Z"/>
</g>
<g fill="None" fill-opacity="0.0" stroke="#B0CFB0" stroke-opacity="0.38" stroke-width="0.3"><path d="
M 404.00 666.00 
C 402.22 665.18 401.21 664.51 399.00 664.00
C 400.40 664.50 402.30 665.46 404.00 666.00 Z"/>
</g>
<g fill="None" fill-opacity="0.0" stroke="#BEDEBB" stroke-opacity="0.31" stroke-width="0.3"><path d="
M 541.00 668.00 
C 542.98 667.49 544.40 666.57 546.00 666.00
C 544.15 666.45 542.49 667.46 541.00 668.00 Z"/>
</g>
<g fill="None" fill-opacity="0.0" stroke="#B5D1B3" stroke-opacity="0.40" stroke-width="0.3"><path d="
M 419.00 670.00 
C 416.69 669.22 414.82 668.41 412.00 668.00
C 413.96 668.50 416.64 669.50 419.00 670.00 Z"/>
</g>
<g fill="#000000" fill-opacity="0.00" stroke="None">
<path d="
M 0.00 674.00 
L 434.00 674.00
C 433.18 673.40 430.88 672.22 430.00 672.00
C 426.45 671.10 422.59 670.76 419.00 670.00
C 416.64 669.50 413.96 668.50 412.00 668.00
C 408.96 667.56 406.87 666.91 404.00 666.00
C 402.30 665.46 400.40 664.50 399.00 664.00
C 393.69 662.78 389.18 660.71 384.00 659.00
C 381.55 658.19 380.00 656.94 378.00 656.00
C 374.33 654.89 371.64 653.57 368.00 652.00
C 365.72 651.01 359.57 650.68 361.00 648.00
C 360.64 647.77 360.00 648.00 360.00 648.00
C 354.95 646.89 351.09 642.48 347.00 640.00
C 343.62 638.59 341.22 637.12 338.00 635.00
C 330.89 630.32 324.21 625.37 319.00 620.00
C 317.97 619.28 317.11 618.94 316.00 618.00
C 309.93 612.86 299.63 606.43 296.00 599.00
C 290.15 597.77 286.83 587.81 282.23 583.77 C 277.63 579.73 273.70 572.39 270.00 567.00
C 264.64 559.18 258.89 551.03 256.00 542.00
C 254.58 539.12 252.39 536.15 251.00 533.00
C 248.47 527.26 245.35 521.09 244.00 515.00
C 243.08 512.52 241.90 509.72 241.00 507.00
C 234.83 488.26 230.00 468.33 230.00 448.00
C 227.52 422.38 229.00 394.41 229.00 368.00
C 229.00 352.10 228.54 335.09 230.00 320.00
C 229.99 306.56 230.47 292.78 230.00 280.00
C 230.23 276.05 240.83 278.46 245.00 278.00 C 249.17 277.54 256.96 278.16 262.00 278.00 C 267.04 277.84 274.72 278.00 280.00 278.00
C 301.33 278.00 322.67 278.00 344.00 278.00
C 354.67 278.00 365.33 278.00 376.00 278.00
C 380.71 277.54 386.60 277.00 392.00 277.00
C 397.33 277.00 402.67 277.00 408.00 277.00
C 437.33 277.00 466.67 277.00 496.00 277.00
C 512.00 277.00 528.00 277.00 544.00 277.00
C 570.67 277.00 597.33 277.00 624.00 277.00
C 644.40 275.03 666.84 276.00 688.00 276.00
C 692.73 276.00 702.80 275.54 707.00 276.00 C 711.20 276.46 724.77 273.95 725.00 278.00
C 726.92 299.61 725.00 322.29 725.00 344.00
C 725.00 362.67 725.00 381.33 725.00 400.00
C 725.00 411.63 725.05 424.15 724.00 435.00
C 723.99 441.38 723.54 448.38 723.00 454.00
C 723.00 480.13 713.09 506.63 703.00 530.00
C 699.99 536.98 696.17 542.79 693.00 549.00
C 690.42 555.82 686.04 561.74 682.00 568.00
C 679.11 572.47 676.44 577.90 672.00 581.00
C 671.91 581.48 672.00 582.00 672.00 582.00
C 670.10 586.92 661.09 597.34 656.00 599.00
C 655.80 599.40 656.00 600.00 656.00 600.00
C 655.39 602.09 650.09 607.39 648.00 608.00
C 647.54 608.13 647.00 608.00 647.00 608.00
C 643.02 613.69 636.74 618.20 631.30 622.30 C 625.87 626.40 620.38 632.69 614.00 635.00
C 613.56 635.16 613.00 635.00 613.00 635.00
C 611.78 636.68 610.68 636.91 609.00 638.00
C 607.32 639.34 606.99 639.09 605.00 640.00
C 600.74 642.61 596.59 645.70 592.00 648.00
C 588.19 649.91 584.92 651.55 581.00 653.00
C 579.45 653.72 577.92 655.47 576.00 656.00
C 575.53 656.13 574.49 655.92 574.00 656.00
C 572.06 656.95 570.22 658.18 568.00 659.00
C 560.61 661.73 553.63 664.13 546.00 666.00
C 544.40 666.57 542.98 667.49 541.00 668.00
C 534.17 669.76 527.40 672.44 520.00 672.00
C 519.18 672.16 516.65 673.20 516.00 674.00
L 957.00 674.00
L 957.00 0.00
L 624.00 0.00
C 624.62 0.46 626.34 1.80 627.00 2.00
C 637.92 3.42 646.30 6.19 656.00 10.00
C 659.46 11.36 664.91 12.65 667.00 16.00
C 667.48 16.10 668.00 16.00 668.00 16.00
C 671.66 17.32 676.89 20.77 679.00 24.00
C 679.36 24.22 680.00 24.00 680.00 24.00
C 682.22 24.65 687.05 28.71 688.00 31.00
C 688.14 31.34 688.68 31.80 689.00 32.00
C 693.16 34.57 695.42 41.28 700.00 40.00
C 699.51 47.06 709.08 52.59 711.00 60.00
C 714.73 66.49 717.11 72.80 719.00 80.00
C 719.61 81.63 720.47 83.00 721.00 85.00
C 721.46 86.75 721.73 88.10 722.00 90.00
C 722.78 93.15 723.51 96.30 724.00 100.00
C 726.79 120.96 725.57 145.82 715.00 164.00
C 713.56 167.58 711.88 169.89 710.00 173.00
C 707.16 179.43 703.74 184.45 699.00 190.00
C 694.94 194.75 690.14 200.90 685.25 204.25 C 680.36 207.59 674.51 216.15 669.00 216.00
C 665.90 218.71 660.92 221.08 657.00 222.00
C 656.53 222.11 656.00 222.00 656.00 222.00
C 654.89 224.22 652.80 224.48 650.00 225.00
C 649.52 225.09 649.00 225.00 649.00 225.00
C 645.90 226.87 644.76 226.94 641.00 228.00
C 637.32 229.78 630.41 230.71 625.00 231.00
C 622.43 231.42 619.21 232.00 616.00 232.00
C 611.67 232.00 607.33 232.00 603.00 232.00
C 599.81 232.00 596.48 231.35 594.00 231.00
C 588.27 230.78 583.40 229.34 578.00 228.00
C 573.97 227.00 571.23 226.25 568.00 224.00
C 567.51 223.92 566.50 224.01 566.00 224.00
C 562.20 223.92 561.33 221.72 558.00 220.00
C 557.53 219.89 557.00 220.00 557.00 220.00
C 551.11 216.29 545.48 213.29 540.00 209.00
C 537.63 207.15 535.12 205.87 533.00 204.00
C 529.11 200.57 525.33 196.90 522.00 193.00
C 518.59 189.01 513.12 184.07 512.00 179.00
C 511.90 178.52 512.00 178.00 512.00 178.00
C 509.85 176.60 509.14 175.17 508.00 173.00
C 507.11 171.30 506.70 169.70 506.00 168.00
C 505.29 166.85 504.65 166.35 504.00 165.00
C 499.18 154.95 495.61 144.30 495.00 133.00
C 493.20 121.91 493.21 111.01 495.00 100.00
C 495.54 90.11 498.45 81.05 502.00 72.00
C 504.42 65.82 507.15 58.63 512.00 54.00
C 512.16 53.56 512.00 53.00 512.00 53.00
C 514.64 45.69 522.61 38.61 527.92 32.92 C 533.23 27.23 541.91 20.31 549.00 17.00
C 550.08 16.50 550.92 16.39 552.00 16.00
C 553.40 15.23 554.09 13.52 556.00 13.00
C 556.47 12.87 557.00 13.00 557.00 13.00
C 559.30 9.32 566.09 8.22 570.00 7.00
C 571.43 6.55 572.49 6.32 574.00 6.00
C 577.19 4.90 580.27 3.68 584.00 3.00
C 586.69 2.51 589.11 2.23 592.00 2.00
C 593.39 1.77 596.78 0.90 598.00 0.00
L 359.00 0.00
C 359.80 0.58 362.16 1.80 363.00 2.00
C 365.55 2.25 367.66 2.59 370.00 3.00
C 373.86 3.68 376.91 4.90 380.00 6.00
C 384.27 7.03 387.88 8.38 392.00 10.00
C 395.46 11.36 400.91 12.65 403.00 16.00
C 403.48 16.10 404.00 16.00 404.00 16.00
C 409.79 17.13 416.47 24.13 421.00 28.00
C 424.47 30.97 429.97 34.86 432.00 39.00
C 432.20 39.40 432.00 40.00 432.00 40.00
C 436.34 41.03 442.47 50.77 444.00 55.00
C 444.16 55.44 444.00 56.00 444.00 56.00
C 446.02 57.94 446.69 59.68 448.00 62.00
C 449.87 64.50 450.10 66.20 451.00 69.00
C 452.33 71.98 454.03 74.58 455.00 78.00
C 455.38 79.34 455.66 80.60 456.00 82.00
C 456.70 83.91 457.51 85.68 458.00 88.00
C 463.18 112.57 461.53 136.89 453.00 160.00
C 450.97 165.49 447.79 170.18 445.00 175.00
C 444.10 176.98 444.46 177.27 443.00 179.00
C 442.28 180.15 441.74 181.05 441.00 182.00
C 440.31 182.90 439.66 183.93 439.00 185.00
C 431.73 196.72 419.57 206.99 408.00 214.00
C 402.38 217.41 398.19 220.04 392.00 222.00
C 390.32 222.81 390.70 224.29 388.00 224.00
C 387.51 223.95 387.00 224.00 387.00 224.00
C 383.64 225.63 380.92 227.06 377.00 228.00
C 373.63 228.81 370.55 229.60 367.00 230.00
C 362.25 230.98 357.50 232.00 352.00 232.00
C 348.00 232.00 344.00 232.00 340.00 232.00
C 336.49 232.00 332.80 231.40 330.00 231.00
C 320.76 230.65 311.25 227.90 303.00 224.00
C 293.91 221.54 275.41 213.55 270.00 204.00
C 269.88 203.79 269.00 204.00 269.00 204.00
C 265.87 202.47 261.76 197.89 260.00 195.00
C 259.76 194.60 259.28 193.25 259.00 193.00
C 251.80 186.53 246.22 178.03 242.00 169.00
C 235.13 154.31 230.00 139.76 230.00 123.00
C 229.67 119.54 229.67 115.39 230.00 112.00
C 230.00 96.97 233.17 85.08 238.00 72.00
C 239.73 67.30 241.77 64.90 244.00 61.00
C 244.38 60.03 244.52 59.02 245.00 58.00
C 247.67 52.28 251.89 46.81 256.00 42.00
C 259.52 37.88 266.93 32.99 266.00 28.00
C 269.59 29.94 271.77 25.17 275.00 24.00
C 275.36 23.78 276.00 24.00 276.00 24.00
C 278.45 20.24 283.40 18.10 287.00 16.00
C 288.45 14.95 289.45 14.65 291.00 14.00
C 296.87 10.71 302.52 8.22 309.00 6.00
C 315.39 3.81 321.13 2.66 328.00 2.00
C 328.88 1.80 331.30 0.83 332.00 0.00
L 0.00 0.00
L 0.00 674.00 Z"/>
</g>
<g fill="#BFECBF" fill-opacity="0.77" stroke="None">
<path d="
M 328.00 2.00 
C 339.58 0.88 351.41 0.88 363.00 2.00
C 362.16 1.80 359.80 0.58 359.00 0.00
L 332.00 0.00
C 331.30 0.83 328.88 1.80 328.00 2.00 Z"/>
</g>
<g fill="#BFEAC3" fill-opacity="0.77" stroke="None">
<path d="
M 592.00 2.00 
C 603.55 1.08 615.46 0.50 627.00 2.00
C 626.34 1.80 624.62 0.46 624.00 0.00
L 598.00 0.00
C 596.78 0.90 593.39 1.77 592.00 2.00 Z"/>
</g>
<g fill="#4F9350" fill-opacity="1.00" stroke="None">
<path d="
M 328.00 2.00 
C 321.13 2.66 315.39 3.81 309.00 6.00
C 303.28 8.67 297.04 11.48 291.00 14.00
C 289.45 14.65 288.45 14.95 287.00 16.00
C 283.40 18.60 279.87 21.59 276.00 24.00
C 276.00 24.00 275.36 23.78 275.00 24.00
C 270.75 30.08 263.88 34.29 259.00 40.00
C 254.15 45.68 248.84 51.97 245.00 58.00
C 244.52 59.02 244.38 60.03 244.00 61.00
C 242.49 64.92 239.76 68.52 238.00 72.00
C 233.17 85.08 230.00 96.97 230.00 112.00
C 230.00 115.67 230.00 119.33 230.00 123.00
C 230.00 139.76 235.13 154.31 242.00 169.00
C 246.60 176.83 252.62 186.10 259.00 193.00
C 262.15 196.40 268.17 199.60 270.00 204.00
C 279.37 212.67 291.95 218.77 303.00 224.00
C 311.25 227.90 320.76 230.65 330.00 231.00
C 333.35 231.13 337.36 231.74 340.00 232.00
C 344.00 232.00 348.00 232.00 352.00 232.00
C 356.44 231.57 362.05 230.55 367.00 230.00
C 370.55 229.60 373.63 228.81 377.00 228.00
C 380.19 226.75 383.08 224.08 387.00 224.00
C 387.00 224.00 387.51 223.95 388.00 224.00
C 389.24 222.72 390.28 222.54 392.00 222.00
C 398.19 220.04 402.38 217.41 408.00 214.00
C 418.55 205.84 430.64 195.73 439.00 185.00
C 439.66 183.93 440.31 182.90 441.00 182.00
C 441.73 180.78 442.06 180.11 443.00 179.00
C 444.46 177.27 444.10 176.98 445.00 175.00
C 447.35 169.83 450.56 164.82 453.00 160.00
C 461.53 136.89 463.18 112.57 458.00 88.00
C 457.46 86.23 456.52 84.14 456.00 82.00
C 455.66 80.60 455.38 79.34 455.00 78.00
C 453.83 75.15 452.02 72.20 451.00 69.00
C 450.10 66.20 449.87 64.50 448.00 62.00
C 446.57 60.10 444.49 58.51 444.00 56.00
C 444.00 56.00 444.16 55.44 444.00 55.00
C 440.42 52.67 433.97 44.02 432.00 40.00
C 432.00 40.00 432.20 39.40 432.00 39.00
C 428.40 36.48 425.28 32.81 422.00 30.00
C 416.77 25.53 407.51 21.40 404.00 16.00
C 404.00 16.00 403.48 16.10 403.00 16.00
C 399.16 15.16 395.30 11.76 392.00 10.00
C 387.88 8.38 384.27 7.03 380.00 6.00
C 376.66 5.20 372.97 3.86 370.00 3.00
C 367.66 2.59 365.55 2.25 363.00 2.00
C 351.41 0.88 339.58 0.88 328.00 2.00 Z"/>
</g>
<g fill="#4F9350" fill-opacity="1.00" stroke="None">
<path d="
M 592.00 2.00 
C 589.11 2.23 586.69 2.51 584.00 3.00
C 580.93 3.93 577.49 5.26 574.00 6.00
C 572.49 6.32 571.43 6.55 570.00 7.00
C 565.93 8.82 561.62 11.91 557.00 13.00
C 557.00 13.00 556.47 12.87 556.00 13.00
C 554.94 15.06 553.94 15.30 552.00 16.00
C 550.92 16.39 550.08 16.50 549.00 17.00
C 534.62 27.05 524.39 41.11 512.00 53.00
C 512.00 53.00 512.16 53.56 512.00 54.00
C 509.77 60.19 504.99 66.39 502.00 72.00
C 498.45 81.05 495.54 90.11 495.00 100.00
C 494.39 111.22 494.39 121.75 495.00 133.00
C 495.61 144.30 499.18 154.95 504.00 165.00
C 504.95 166.33 505.32 166.34 506.00 168.00
C 506.70 169.70 507.11 171.30 508.00 173.00
C 509.44 175.04 511.07 175.64 512.00 178.00
C 512.00 178.00 511.90 178.52 512.00 179.00
C 516.18 183.01 519.35 188.38 523.00 193.00
C 525.65 196.35 528.82 199.28 532.00 202.00
C 534.68 204.29 537.39 206.96 540.00 209.00
C 544.63 212.62 553.96 215.13 557.00 220.00
C 557.00 220.00 557.53 219.89 558.00 220.00
C 561.09 220.73 563.42 222.73 566.00 224.00
C 566.50 224.01 567.51 223.92 568.00 224.00
C 571.48 224.60 574.98 226.95 578.00 228.00
C 583.40 229.34 588.27 230.78 594.00 231.00
C 597.03 231.12 600.68 231.78 603.00 232.00
C 607.33 232.00 611.67 232.00 616.00 232.00
C 618.35 231.77 622.01 231.16 625.00 231.00
C 630.41 230.71 637.32 229.78 641.00 228.00
C 643.64 226.72 645.63 225.13 649.00 225.00
C 649.00 225.00 649.52 225.09 650.00 225.00
C 651.75 223.50 653.78 222.91 656.00 222.00
C 656.00 222.00 656.53 222.11 657.00 222.00
C 660.55 219.15 664.92 217.25 669.00 215.00
C 680.17 208.84 689.80 199.20 699.00 190.00
C 703.74 184.45 707.16 179.43 710.00 173.00
C 711.41 169.81 713.38 166.79 715.00 164.00
C 725.57 145.82 726.79 120.96 724.00 100.00
C 723.31 97.02 722.49 93.45 722.00 90.00
C 721.73 88.10 721.46 86.75 721.00 85.00
C 720.45 83.52 719.48 81.83 719.00 80.00
C 717.11 72.80 714.73 66.49 711.00 60.00
C 703.73 51.06 696.33 41.40 689.00 32.00
C 688.68 31.80 688.14 31.34 688.00 31.00
C 685.20 28.52 682.24 27.21 680.00 24.00
C 680.00 24.00 679.36 24.22 679.00 24.00
C 675.41 21.76 670.31 19.55 668.00 16.00
C 668.00 16.00 667.48 16.10 667.00 16.00
C 663.12 15.15 659.18 11.75 656.00 10.00
C 646.30 6.19 637.92 3.42 627.00 2.00
C 615.46 0.50 603.55 1.08 592.00 2.00 Z"/>
</g>
<g fill="#BED7B7" fill-opacity="0.32" stroke="None">
<path d="
M 380.00 6.00 
C 376.91 4.90 373.86 3.68 370.00 3.00
C 372.97 3.86 376.66 5.20 380.00 6.00 Z"/>
</g>
<g fill="#BADEBA" fill-opacity="0.31" stroke="None">
<path d="
M 574.00 6.00 
C 577.49 5.26 580.93 3.93 584.00 3.00
C 580.27 3.68 577.19 4.90 574.00 6.00 Z"/>
</g>
<g fill="#B2D6BA" fill-opacity="0.38" stroke="None">
<path d="
M 291.00 14.00 
C 297.04 11.48 303.28 8.67 309.00 6.00
C 302.52 8.22 296.87 10.71 291.00 14.00 Z"/>
</g>
<g fill="#BEE1B9" fill-opacity="0.31" stroke="None">
<path d="
M 557.00 13.00 
C 561.62 11.91 565.93 8.82 570.00 7.00
C 566.09 8.22 559.30 9.32 557.00 13.00 Z"/>
</g>
<g fill="#B9D0BA" fill-opacity="0.34" stroke="None">
<path d="
M 403.00 16.00 
C 400.91 12.65 395.46 11.36 392.00 10.00
C 395.30 11.76 399.16 15.16 403.00 16.00 Z"/>
</g>
<g fill="#B9D6B7" fill-opacity="0.35" stroke="None">
<path d="
M 667.00 16.00 
C 664.91 12.65 659.46 11.36 656.00 10.00
C 659.18 11.75 663.12 15.15 667.00 16.00 Z"/>
</g>
<g fill="#A7C3AC" fill-opacity="0.49" stroke="None">
<path d="
M 552.00 16.00 
C 553.94 15.30 554.94 15.06 556.00 13.00
C 554.09 13.52 553.40 15.23 552.00 16.00 Z"/>
</g>
<g fill="#B7D5B5" fill-opacity="0.38" stroke="None">
<path d="
M 276.00 24.00 
C 279.87 21.59 283.40 18.60 287.00 16.00
C 283.40 18.10 278.45 20.24 276.00 24.00 Z"/>
</g>
<g fill="#B1D6B2" fill-opacity="0.36" stroke="None">
<path d="
M 422.00 30.00 
C 421.54 29.51 421.40 28.43 421.00 28.00
C 416.47 24.13 409.79 17.13 404.00 16.00
C 407.51 21.40 416.77 25.53 422.00 30.00 Z"/>
</g>
<g fill="#B1D2B3" fill-opacity="0.40" stroke="None">
<path d="
M 679.00 24.00 
C 676.89 20.77 671.66 17.32 668.00 16.00
C 670.31 19.55 675.41 21.76 679.00 24.00 Z"/>
</g>
<g fill="#B5D7B6" fill-opacity="0.36" stroke="None">
<path d="
M 512.00 53.00 
C 524.39 41.11 534.62 27.05 549.00 17.00
C 541.91 20.31 533.23 27.23 527.92 32.92 C 522.61 38.61 514.64 45.69 512.00 53.00 Z"/>
</g>
<g fill="#B6D6B7" fill-opacity="0.25" stroke="None">
<path d="
M 256.00 42.00 
C 256.83 41.24 258.22 40.72 259.00 40.00
C 263.88 34.29 270.75 30.08 275.00 24.00
C 271.77 25.17 269.59 29.94 266.00 28.00
C 266.93 32.99 259.52 37.88 256.00 42.00 Z"/>
</g>
<g fill="#C1EDCF" fill-opacity="0.18" stroke="None">
<path d="
M 688.00 31.00 
C 687.05 28.71 682.22 24.65 680.00 24.00
C 682.24 27.21 685.20 28.52 688.00 31.00 Z"/>
</g>
<g fill="#C2E5C9" fill-opacity="0.23" stroke="None">
<path d="
M 422.00 30.00 
C 425.28 32.81 428.40 36.48 432.00 39.00
C 429.97 34.86 424.47 30.97 421.00 28.00
C 421.40 28.43 421.54 29.51 422.00 30.00 Z"/>
</g>
<g fill="#AED2B1" fill-opacity="0.34" stroke="None">
<path d="
M 711.00 60.00 
C 709.08 52.59 699.51 47.06 700.00 40.00
C 695.42 41.28 693.16 34.57 689.00 32.00
C 696.33 41.40 703.73 51.06 711.00 60.00 Z"/>
</g>
<g fill="#B0CEAC" fill-opacity="0.44" stroke="None">
<path d="
M 256.00 42.00 
C 251.89 46.81 247.67 52.28 245.00 58.00
C 248.84 51.97 254.15 45.68 259.00 40.00
C 258.22 40.72 256.83 41.24 256.00 42.00 Z"/>
</g>
<g fill="#B2D2B2" fill-opacity="0.39" stroke="None">
<path d="
M 444.00 55.00 
C 442.47 50.77 436.34 41.03 432.00 40.00
C 433.97 44.02 440.42 52.67 444.00 55.00 Z"/>
</g>
<g fill="#B7D9BA" fill-opacity="0.34" stroke="None">
<path d="
M 502.00 72.00 
C 504.99 66.39 509.77 60.19 512.00 54.00
C 507.15 58.63 504.42 65.82 502.00 72.00 Z"/>
</g>
<g fill="#B1D0B2" fill-opacity="0.41" stroke="None">
<path d="
M 448.00 62.00 
C 446.69 59.68 446.02 57.94 444.00 56.00
C 444.49 58.51 446.57 60.10 448.00 62.00 Z"/>
</g>
<g fill="#CBE9C5" fill-opacity="0.26" stroke="None">
<path d="
M 238.00 72.00 
C 239.76 68.52 242.49 64.92 244.00 61.00
C 241.77 64.90 239.73 67.30 238.00 72.00 Z"/>
</g>
<g fill="#B7DABA" fill-opacity="0.35" stroke="None">
<path d="
M 455.00 78.00 
C 454.03 74.58 452.33 71.98 451.00 69.00
C 452.02 72.20 453.83 75.15 455.00 78.00 Z"/>
</g>
<g fill="#B5DEB3" fill-opacity="0.40" stroke="None">
<path d="
M 721.00 85.00 
C 720.47 83.00 719.61 81.63 719.00 80.00
C 719.48 81.83 720.45 83.52 721.00 85.00 Z"/>
</g>
<g fill="#C5DFBA" fill-opacity="0.28" stroke="None">
<path d="
M 458.00 88.00 
C 457.51 85.68 456.70 83.91 456.00 82.00
C 456.52 84.14 457.46 86.23 458.00 88.00 Z"/>
</g>
<g fill="#B2D6B3" fill-opacity="0.38" stroke="None">
<path d="
M 724.00 100.00 
C 723.51 96.30 722.78 93.15 722.00 90.00
C 722.49 93.45 723.31 97.02 724.00 100.00 Z"/>
</g>
<g fill="#C1DBB9" fill-opacity="0.31" stroke="None">
<path d="
M 495.00 133.00 
C 494.39 121.75 494.39 111.22 495.00 100.00
C 493.21 111.01 493.20 121.91 495.00 133.00 Z"/>
</g>
<g fill="#E1F3D0" fill-opacity="0.07" stroke="None">
<path d="
M 230.00 123.00 
C 230.00 119.33 230.00 115.67 230.00 112.00
C 229.67 115.39 229.67 119.54 230.00 123.00 Z"/>
</g>
<g fill="#B7D7B7" fill-opacity="0.36" stroke="None">
<path d="
M 445.00 175.00 
C 447.79 170.18 450.97 165.49 453.00 160.00
C 450.56 164.82 447.35 169.83 445.00 175.00 Z"/>
</g>
<g fill="#C3E0C0" fill-opacity="0.26" stroke="None">
<path d="
M 710.00 173.00 
C 711.88 169.89 713.56 167.58 715.00 164.00
C 713.38 166.79 711.41 169.81 710.00 173.00 Z"/>
</g>
<g fill="#B3D7B3" fill-opacity="0.40" stroke="None">
<path d="
M 506.00 168.00 
C 505.32 166.34 504.95 166.33 504.00 165.00
C 504.65 166.35 505.29 166.85 506.00 168.00 Z"/>
</g>
<g fill="#B2D4B3" fill-opacity="0.40" stroke="None">
<path d="
M 259.00 193.00 
C 252.62 186.10 246.60 176.83 242.00 169.00
C 246.22 178.03 251.80 186.53 259.00 193.00 Z"/>
</g>
<g fill="#AEC1AE" fill-opacity="0.44" stroke="None">
<path d="
M 512.00 178.00 
C 511.07 175.64 509.44 175.04 508.00 173.00
C 509.14 175.17 509.85 176.60 512.00 178.00 Z"/>
</g>
<g fill="#B8DEB8" fill-opacity="0.33" stroke="None">
<path d="
M 441.00 182.00 
C 441.74 181.05 442.28 180.15 443.00 179.00
C 442.06 180.11 441.73 180.78 441.00 182.00 Z"/>
</g>
<g fill="#ACCDAD" fill-opacity="0.44" stroke="None">
<path d="
M 522.00 193.00 
C 522.16 193.23 523.00 193.00 523.00 193.00
C 519.35 188.38 516.18 183.01 512.00 179.00
C 513.12 184.07 518.59 189.01 522.00 193.00 Z"/>
</g>
<g fill="#B9D9BA" fill-opacity="0.33" stroke="None">
<path d="
M 408.00 214.00 
C 419.57 206.99 431.73 196.72 439.00 185.00
C 430.64 195.73 418.55 205.84 408.00 214.00 Z"/>
</g>
<g fill="#BCDCBB" fill-opacity="0.32" stroke="None">
<path d="
M 669.00 215.00 
C 668.79 215.11 669.00 216.00 669.00 216.00
C 674.51 216.15 680.36 207.59 685.25 204.25 C 690.14 200.90 694.94 194.75 699.00 190.00
C 689.80 199.20 680.17 208.84 669.00 215.00 Z"/>
</g>
<g fill="#97BA97" fill-opacity="0.64" stroke="None">
<path d="
M 260.00 195.00 
C 262.87 198.07 266.57 200.51 269.00 204.00
C 269.00 204.00 269.88 203.79 270.00 204.00
C 268.17 199.60 262.15 196.40 259.00 193.00
C 259.28 193.25 259.76 194.60 260.00 195.00 Z"/>
</g>
<g fill="#D2EECF" fill-opacity="0.11" stroke="None">
<path d="
M 533.00 204.00 
C 532.61 203.50 532.38 202.41 532.00 202.00
C 528.82 199.28 525.65 196.35 523.00 193.00
C 523.00 193.00 522.16 193.23 522.00 193.00
C 525.33 196.90 529.11 200.57 533.00 204.00 Z"/>
</g>
<g fill="#D1EFD1" fill-opacity="0.07" stroke="None">
<path d="
M 269.00 204.00 
C 266.57 200.51 262.87 198.07 260.00 195.00
C 261.76 197.89 265.87 202.47 269.00 204.00 Z"/>
</g>
<g fill="#B0CDA7" fill-opacity="0.46" stroke="None">
<path d="
M 533.00 204.00 
C 535.12 205.87 537.63 207.15 540.00 209.00
C 537.39 206.96 534.68 204.29 532.00 202.00
C 532.38 202.41 532.61 203.50 533.00 204.00 Z"/>
</g>
<g fill="#B9DFBA" fill-opacity="0.32" stroke="None">
<path d="
M 303.00 224.00 
C 291.95 218.77 279.37 212.67 270.00 204.00
C 275.41 213.55 293.91 221.54 303.00 224.00 Z"/>
</g>
<g fill="#C1DFC0" fill-opacity="0.27" stroke="None">
<path d="
M 557.00 220.00 
C 553.96 215.13 544.63 212.62 540.00 209.00
C 545.48 213.29 551.11 216.29 557.00 220.00 Z"/>
</g>
<g fill="#ABCAA8" fill-opacity="0.47" stroke="None">
<path d="
M 657.00 222.00 
C 660.92 221.08 665.90 218.71 669.00 216.00
C 669.00 216.00 668.79 215.11 669.00 215.00
C 664.92 217.25 660.55 219.15 657.00 222.00 Z"/>
</g>
<g fill="#BAE0BB" fill-opacity="0.29" stroke="None">
<path d="
M 566.00 224.00 
C 563.42 222.73 561.09 220.73 558.00 220.00
C 561.33 221.72 562.20 223.92 566.00 224.00 Z"/>
</g>
<g fill="#A9D4A9" fill-opacity="0.47" stroke="None">
<path d="
M 388.00 224.00 
C 390.70 224.29 390.32 222.81 392.00 222.00
C 390.28 222.54 389.24 222.72 388.00 224.00 Z"/>
</g>
<g fill="#C2E5B4" fill-opacity="0.34" stroke="None">
<path d="
M 650.00 225.00 
C 652.80 224.48 654.89 224.22 656.00 222.00
C 653.78 222.91 651.75 223.50 650.00 225.00 Z"/>
</g>
<g fill="#A5C1A5" fill-opacity="0.52" stroke="None">
<path d="
M 377.00 228.00 
C 380.92 227.06 383.64 225.63 387.00 224.00
C 383.08 224.08 380.19 226.75 377.00 228.00 Z"/>
</g>
<g fill="#B0D6B2" fill-opacity="0.37" stroke="None">
<path d="
M 578.00 228.00 
C 574.98 226.95 571.48 224.60 568.00 224.00
C 571.23 226.25 573.97 227.00 578.00 228.00 Z"/>
</g>
<g fill="#C8E2B3" fill-opacity="0.38" stroke="None">
<path d="
M 641.00 228.00 
C 644.76 226.94 645.90 226.87 649.00 225.00
C 645.63 225.13 643.64 226.72 641.00 228.00 Z"/>
</g>
<g fill="#B1D5AE" fill-opacity="0.43" stroke="None">
<path d="
M 352.00 232.00 
C 357.50 232.00 362.25 230.98 367.00 230.00
C 362.05 230.55 356.44 231.57 352.00 232.00 Z"/>
</g>
<g fill="#A8D4A8" fill-opacity="0.45" stroke="None">
<path d="
M 340.00 232.00 
C 337.36 231.74 333.35 231.13 330.00 231.00
C 332.80 231.40 336.49 232.00 340.00 232.00 Z"/>
</g>
<g fill="#B3D8B2" fill-opacity="0.40" stroke="None">
<path d="
M 603.00 232.00 
C 600.68 231.78 597.03 231.12 594.00 231.00
C 596.48 231.35 599.81 232.00 603.00 232.00 Z"/>
</g>
<g fill="#B2DCAD" fill-opacity="0.40" stroke="None">
<path d="
M 616.00 232.00 
C 619.21 232.00 622.43 231.42 625.00 231.00
C 622.01 231.16 618.35 231.77 616.00 232.00 Z"/>
</g>
<g fill="#DBFBD3" fill-opacity="0.09" stroke="None">
<path d="
M 624.00 277.00 
C 624.50 277.00 625.00 277.00 625.00 277.00
C 645.72 277.00 667.38 278.85 688.00 277.00
C 687.96 277.00 688.00 276.00 688.00 276.00
C 666.84 276.00 644.40 275.03 624.00 277.00 Z"/>
</g>
<g fill="#C9E8BE" fill-opacity="0.29" stroke="None">
<path d="
M 688.00 277.00 
C 693.39 276.48 700.70 276.58 706.00 277.00 C 711.30 277.42 719.99 275.04 724.00 278.00
C 724.32 278.24 725.00 278.00 725.00 278.00
C 724.77 273.95 711.20 276.46 707.00 276.00 C 702.80 275.54 692.73 276.00 688.00 276.00
C 688.00 276.00 687.96 277.00 688.00 277.00 Z"/>
</g>
<g fill="#FFFFBF" fill-opacity="0.02" stroke="None">
<path d="
M 376.00 278.00 
C 381.33 278.00 386.67 278.00 392.00 278.00
C 391.96 278.00 392.00 277.00 392.00 277.00
C 386.60 277.00 380.71 277.54 376.00 278.00 Z"/>
</g>
<g fill="#E3FFE3" fill-opacity="0.04" stroke="None">
<path d="
M 392.00 278.00 
C 397.33 278.00 402.67 278.00 408.00 278.00
C 407.96 278.00 408.00 277.00 408.00 277.00
C 402.67 277.00 397.33 277.00 392.00 277.00
C 392.00 277.00 391.96 278.00 392.00 278.00 Z"/>
</g>
<g fill="#CAE2C5" fill-opacity="0.23" stroke="None">
<path d="
M 408.00 278.00 
C 437.33 278.00 466.67 278.00 496.00 278.00
C 495.96 278.00 496.00 277.00 496.00 277.00
C 466.67 277.00 437.33 277.00 408.00 277.00
C 408.00 277.00 407.96 278.00 408.00 278.00 Z"/>
</g>
<g fill="#B4CDAE" fill-opacity="0.43" stroke="None">
<path d="
M 496.00 278.00 
C 512.00 278.00 528.00 278.00 544.00 278.00
C 543.96 278.00 544.00 277.00 544.00 277.00
C 528.00 277.00 512.00 277.00 496.00 277.00
C 496.00 277.00 495.96 278.00 496.00 278.00 Z"/>
</g>
<g fill="#A2BC9B" fill-opacity="0.60" stroke="None">
<path d="
M 544.00 278.00 
C 571.00 278.00 598.00 278.00 625.00 278.00
C 624.96 278.00 625.00 277.00 625.00 277.00
C 625.00 277.00 624.50 277.00 624.00 277.00
C 597.33 277.00 570.67 277.00 544.00 277.00
C 544.00 277.00 543.96 278.00 544.00 278.00 Z"/>
</g>
<g fill="#92B08B" fill-opacity="1.00" stroke="None">
<path d="
M 625.00 278.00 
C 645.82 278.00 668.01 278.93 688.00 277.00
C 667.38 278.85 645.72 277.00 625.00 277.00
C 625.00 277.00 624.96 278.00 625.00 278.00 Z"/>
</g>
<g fill="#16a34a" fill-opacity="1.00" stroke="None">
<path d="
M 625.00 278.00 
C 598.00 278.00 571.00 278.00 544.00 278.00
C 528.00 278.00 512.00 278.00 496.00 278.00
C 466.67 278.00 437.33 278.00 408.00 278.00
C 402.67 278.00 397.33 278.00 392.00 278.00
C 386.67 278.00 381.33 278.00 376.00 278.00
C 365.33 278.00 354.67 278.00 344.00 278.00
C 336.67 278.71 328.03 279.00 320.00 279.00
C 306.47 280.31 288.90 278.79 275.00 280.00 C 261.10 281.21 242.33 275.73 231.00 282.00
C 231.00 294.94 231.18 308.85 230.00 321.00
C 229.99 336.67 230.00 352.33 230.00 368.00
C 230.00 394.67 230.00 421.33 230.00 448.00
C 230.00 468.33 234.83 488.26 241.00 507.00
C 242.60 510.17 243.16 511.22 244.00 515.00
C 245.35 521.09 248.47 527.26 251.00 533.00
C 253.02 536.34 254.73 538.05 256.00 542.00
C 258.89 551.03 264.64 559.18 270.00 567.00
C 278.56 576.26 285.08 591.36 296.00 598.00
C 296.35 598.21 297.82 598.77 298.00 599.00
C 294.17 581.70 299.70 562.83 298.00 545.00 C 296.30 527.17 298.77 508.10 298.00 490.00 C 297.23 471.90 298.36 453.23 298.00 435.00 C 297.64 416.77 298.19 398.28 298.00 380.00 C 297.81 361.72 298.14 343.29 298.00 325.00
C 309.78 326.00 320.51 330.23 331.23 334.77 C 341.95 339.31 349.33 343.89 358.25 351.75 C 367.16 359.61 375.95 348.88 385.08 343.08 C 394.21 337.28 405.17 334.44 415.69 329.69 C 426.21 324.95 440.03 323.79 452.00 322.00 C 463.97 320.22 480.89 319.00 493.00 321.00 C 505.11 323.00 517.98 324.75 528.68 329.32 C 539.38 333.90 549.64 336.93 559.08 342.92 C 568.52 348.90 576.53 354.31 585.08 360.92 C 593.62 367.53 599.98 374.86 606.92 383.08 C 613.86 391.30 618.50 400.42 623.97 410.03 C 629.45 419.64 634.48 428.84 637.78 440.22 C 641.07 451.60 645.35 462.89 646.00 476.00 C 646.64 489.12 645.70 506.06 646.00 520.00 C 646.30 533.94 645.84 549.71 646.00 564.00 C 646.16 578.29 645.88 593.62 646.00 608.00
C 646.16 607.77 647.00 608.00 647.00 608.00
C 647.00 608.00 647.54 608.13 648.00 608.00
C 650.02 604.21 652.24 602.00 656.00 600.00
C 656.00 600.00 655.80 599.40 656.00 599.00
C 658.68 593.53 667.11 585.42 672.00 582.00
C 672.00 582.00 671.91 581.48 672.00 581.00
C 672.96 576.06 679.20 571.15 682.00 568.00
C 686.04 561.74 690.42 555.82 693.00 549.00
C 695.47 542.48 699.59 535.69 703.00 530.00
C 713.09 506.63 723.00 480.13 723.00 454.00
C 723.00 447.29 723.42 439.95 724.00 434.00
C 723.99 422.67 724.00 411.33 724.00 400.00
C 724.00 381.33 724.00 362.67 724.00 344.00
C 724.00 322.30 722.05 299.60 724.00 278.00
C 719.99 275.04 711.30 277.42 706.00 277.00 C 700.70 276.58 693.39 276.48 688.00 277.00
C 668.01 278.93 645.82 278.00 625.00 278.00 Z"/>
</g>
<g fill="#B8D7B0" fill-opacity="0.41" stroke="None">
<path d="
M 230.00 280.00 
C 230.00 280.02 231.00 280.00 231.00 280.00
C 236.46 275.96 247.85 279.96 255.00 279.00 C 262.15 278.04 272.55 279.00 280.00 279.00
C 279.96 279.00 280.00 278.00 280.00 278.00
C 274.72 278.00 267.04 277.84 262.00 278.00 C 256.96 278.16 249.17 277.54 245.00 278.00 C 240.83 278.46 230.23 276.05 230.00 280.00 Z"/>
</g>
<g fill="#9FC097" fill-opacity="0.63" stroke="None">
<path d="
M 280.00 279.00 
C 293.33 279.00 306.67 279.00 320.00 279.00
C 328.03 279.00 336.67 278.71 344.00 278.00
C 322.67 278.00 301.33 278.00 280.00 278.00
C 280.00 278.00 279.96 279.00 280.00 279.00 Z"/>
</g>
<g fill="#AECDA6" fill-opacity="0.50" stroke="None">
<path d="
M 724.00 344.00 
C 724.00 343.96 725.00 344.00 725.00 344.00
C 725.00 322.29 726.92 299.61 725.00 278.00
C 725.00 278.00 724.32 278.24 724.00 278.00
C 722.05 299.60 724.00 322.30 724.00 344.00 Z"/>
</g>
<g fill="#97B58E" fill-opacity="1.00" stroke="None">
<path d="
M 231.00 280.00 
C 231.23 280.16 231.00 281.50 231.00 282.00
C 242.33 275.73 261.10 281.21 275.00 280.00 C 288.90 278.79 306.47 280.31 320.00 279.00
C 306.67 279.00 293.33 279.00 280.00 279.00
C 272.55 279.00 262.15 278.04 255.00 279.00 C 247.85 279.96 236.46 275.96 231.00 280.00 Z"/>
</g>
<g fill="#9FBE94" fill-opacity="0.65" stroke="None">
<path d="
M 230.00 320.00 
C 230.00 320.50 230.00 321.00 230.00 321.00
C 231.18 308.85 231.00 294.94 231.00 282.00
C 231.00 281.50 231.23 280.16 231.00 280.00
C 231.00 280.00 230.00 280.02 230.00 280.00
C 230.47 292.78 229.99 306.56 230.00 320.00 Z"/>
</g>
<g fill="#E7FCCC" fill-opacity="0.06" stroke="None">
<path d="
M 229.00 368.00 
C 229.00 367.96 230.00 368.00 230.00 368.00
C 230.00 352.33 229.99 336.67 230.00 321.00
C 230.00 321.00 230.00 320.50 230.00 320.00
C 228.54 335.09 229.00 352.10 229.00 368.00 Z"/>
</g>
<g fill="#4E934F" fill-opacity="1.00" stroke="None">
<path d="
M 298.00 599.00 
C 303.30 605.71 309.93 611.77 316.00 618.00
C 317.11 618.94 317.97 619.28 319.00 620.00
C 325.63 624.67 332.03 629.85 338.00 635.00
C 341.22 637.12 343.62 638.59 347.00 640.00
C 350.68 641.53 357.93 644.69 360.00 648.00
C 360.00 648.00 360.64 647.77 361.00 648.00
C 363.31 649.45 365.91 650.75 368.00 652.00
C 371.64 653.57 374.33 654.89 378.00 656.00
C 380.33 656.71 382.06 658.02 384.00 659.00
C 389.18 660.71 393.69 662.78 399.00 664.00
C 401.21 664.51 402.22 665.18 404.00 666.00
C 406.87 666.91 408.96 667.56 412.00 668.00
C 414.82 668.41 416.69 669.22 419.00 670.00
C 422.59 670.76 426.45 671.10 430.00 672.00
C 434.36 669.07 429.76 656.85 431.00 651.00 C 432.24 645.15 430.43 634.81 431.00 628.00 C 431.57 621.19 430.72 612.21 431.00 605.00 C 431.28 597.79 430.85 590.44 431.00 583.00 C 431.15 575.56 430.88 567.60 431.00 560.00 C 431.12 552.40 430.82 544.72 431.00 537.00 C 431.18 529.28 430.62 522.99 431.00 515.00 C 431.38 507.01 430.22 500.54 431.00 492.00 C 431.78 483.46 431.32 483.30 436.31 474.31 C 441.29 465.31 451.37 456.87 461.22 454.22 C 471.08 451.58 471.85 452.41 481.69 454.31 C 491.54 456.20 502.06 464.96 507.75 473.25 C 513.45 481.53 512.11 481.98 513.98 490.02 C 515.84 498.07 513.14 505.23 514.00 513.00 C 514.86 520.77 513.63 527.35 514.00 535.00 C 514.37 542.65 513.83 550.37 514.00 558.00 C 514.17 565.63 513.92 573.42 514.00 581.00 C 514.08 588.58 513.97 595.42 514.00 603.00 C 514.03 610.58 513.98 618.37 514.00 626.00 C 514.02 633.63 513.99 641.35 514.00 649.00 C 514.01 656.65 513.99 664.35 514.00 672.00
C 516.00 672.00 518.00 672.00 520.00 672.00
C 527.40 672.44 534.17 669.76 541.00 668.00
C 542.49 667.46 544.15 666.45 546.00 666.00
C 553.63 664.13 560.61 661.73 568.00 659.00
C 570.02 657.98 571.46 656.44 574.00 656.00
C 574.49 655.92 575.53 656.13 576.00 656.00
C 577.89 654.47 578.60 653.88 581.00 653.00
C 584.92 651.55 588.19 649.91 592.00 648.00
C 596.18 645.11 600.13 642.22 605.00 640.00
C 606.99 639.09 607.32 639.34 609.00 638.00
C 610.38 636.90 611.04 635.53 613.00 635.00
C 613.00 635.00 613.56 635.16 614.00 635.00
C 621.24 623.89 638.07 619.34 646.00 608.00
C 645.88 593.62 646.16 578.29 646.00 564.00 C 645.84 549.71 646.30 533.94 646.00 520.00 C 645.70 506.06 646.64 489.12 646.00 476.00 C 645.35 462.89 641.07 451.60 637.78 440.22 C 634.48 428.84 629.45 419.64 623.97 410.03 C 618.50 400.42 613.86 391.30 606.92 383.08 C 599.98 374.86 593.62 367.53 585.08 360.92 C 576.53 354.31 568.52 348.90 559.08 342.92 C 549.64 336.93 539.38 333.90 528.68 329.32 C 517.98 324.75 505.11 323.00 493.00 321.00 C 480.89 319.00 463.97 320.22 452.00 322.00 C 440.03 323.79 426.21 324.95 415.69 329.69 C 405.17 334.44 394.21 337.28 385.08 343.08 C 375.95 348.88 367.16 359.61 358.25 351.75 C 349.33 343.89 341.95 339.31 331.23 334.77 C 320.51 330.23 309.78 326.00 298.00 325.00
C 298.14 343.29 297.81 361.72 298.00 380.00 C 298.19 398.28 297.64 416.77 298.00 435.00 C 298.36 453.23 297.23 471.90 298.00 490.00 C 298.77 508.10 296.30 527.17 298.00 545.00 C 299.70 562.83 294.17 581.70 298.00 599.00 Z"/>
</g>
<g fill="#C4DCBE" fill-opacity="0.29" stroke="None">
<path d="
M 724.00 400.00 
C 724.00 399.96 725.00 400.00 725.00 400.00
C 725.00 381.33 725.00 362.67 725.00 344.00
C 725.00 344.00 724.00 343.96 724.00 344.00
C 724.00 362.67 724.00 381.33 724.00 400.00 Z"/>
</g>
<g fill="#C8E6C1" fill-opacity="0.25" stroke="None">
<path d="
M 230.00 448.00 
C 230.00 421.33 230.00 394.67 230.00 368.00
C 230.00 368.00 229.00 367.96 229.00 368.00
C 229.00 394.41 227.52 422.38 230.00 448.00 Z"/>
</g>
<g fill="#DDF7D2" fill-opacity="0.07" stroke="None">
<path d="
M 724.00 434.00 
C 724.00 434.50 724.00 435.00 724.00 435.00
C 725.05 424.15 725.00 411.63 725.00 400.00
C 725.00 400.00 724.00 399.96 724.00 400.00
C 724.00 411.33 723.99 422.67 724.00 434.00 Z"/>
</g>
<g fill="#B2CFA6" fill-opacity="0.48" stroke="None">
<path d="
M 723.00 454.00 
C 723.54 448.38 723.99 441.38 724.00 435.00
C 724.00 435.00 724.00 434.50 724.00 434.00
C 723.42 439.95 723.00 447.29 723.00 454.00 Z"/>
</g>
<g fill="#83BB75" fill-opacity="1.00" stroke="None">
<path d="
M 430.00 672.00 
C 430.88 672.22 433.18 673.40 434.00 674.00
L 516.00 674.00
C 516.65 673.20 519.18 672.16 520.00 672.00
C 518.00 672.00 516.00 672.00 514.00 672.00
C 513.99 664.35 514.01 656.65 514.00 649.00 C 513.99 641.35 514.02 633.63 514.00 626.00 C 513.98 618.37 514.03 610.58 514.00 603.00 C 513.97 595.42 514.08 588.58 514.00 581.00 C 513.92 573.42 514.17 565.63 514.00 558.00 C 513.83 550.37 514.37 542.65 514.00 535.00 C 513.63 527.35 514.86 520.77 514.00 513.00 C 513.14 505.23 515.84 498.07 513.98 490.02 C 512.11 481.98 513.45 481.53 507.75 473.25 C 502.06 464.96 491.54 456.20 481.69 454.31 C 471.85 452.41 471.08 451.58 461.22 454.22 C 451.37 456.87 441.29 465.31 436.31 474.31 C 431.32 483.30 431.78 483.46 431.00 492.00 C 430.22 500.54 431.38 507.01 431.00 515.00 C 430.62 522.99 431.18 529.28 431.00 537.00 C 430.82 544.72 431.12 552.40 431.00 560.00 C 430.88 567.60 431.15 575.56 431.00 583.00 C 430.85 590.44 431.28 597.79 431.00 605.00 C 430.72 612.21 431.57 621.19 431.00 628.00 C 430.43 634.81 432.24 645.15 431.00 651.00 C 429.76 656.85 434.36 669.07 430.00 672.00 Z"/>
</g>
<g fill="#C7E3BC" fill-opacity="0.29" stroke="None">
<path d="
M 244.00 515.00 
C 243.16 511.22 242.60 510.17 241.00 507.00
C 241.90 509.72 243.08 512.52 244.00 515.00 Z"/>
</g>
<g fill="#D0EAC4" fill-opacity="0.22" stroke="None">
<path d="
M 693.00 549.00 
C 696.17 542.79 699.99 536.98 703.00 530.00
C 699.59 535.69 695.47 542.48 693.00 549.00 Z"/>
</g>
<g fill="#BCD3B8" fill-opacity="0.34" stroke="None">
<path d="
M 256.00 542.00 
C 254.73 538.05 253.02 536.34 251.00 533.00
C 252.39 536.15 254.58 539.12 256.00 542.00 Z"/>
</g>
<g fill="#C3DEBC" fill-opacity="0.31" stroke="None">
<path d="
M 296.00 599.00 
C 295.80 598.60 296.00 598.00 296.00 598.00
C 285.08 591.36 278.56 576.26 270.00 567.00
C 273.70 572.39 277.63 579.73 282.23 583.77 C 286.83 587.81 290.15 597.77 296.00 599.00 Z"/>
</g>
<g fill="#C5DEBD" fill-opacity="0.29" stroke="None">
<path d="
M 672.00 581.00 
C 676.44 577.90 679.11 572.47 682.00 568.00
C 679.20 571.15 672.96 576.06 672.00 581.00 Z"/>
</g>
<g fill="#CEE7C3" fill-opacity="0.24" stroke="None">
<path d="
M 656.00 599.00 
C 661.09 597.34 670.10 586.92 672.00 582.00
C 667.11 585.42 658.68 593.53 656.00 599.00 Z"/>
</g>
<g fill="#A8CBA9" fill-opacity="0.49" stroke="None">
<path d="
M 296.00 599.00 
C 299.63 606.43 309.93 612.86 316.00 618.00
C 309.93 611.77 303.30 605.71 298.00 599.00
C 297.82 598.77 296.35 598.21 296.00 598.00
C 296.00 598.00 295.80 598.60 296.00 599.00 Z"/>
</g>
<g fill="#CBE7BF" fill-opacity="0.25" stroke="None">
<path d="
M 648.00 608.00 
C 650.09 607.39 655.39 602.09 656.00 600.00
C 652.24 602.00 650.02 604.21 648.00 608.00 Z"/>
</g>
<g fill="#B4D4B4" fill-opacity="0.38" stroke="None">
<path d="
M 614.00 635.00 
C 620.38 632.69 625.87 626.40 631.30 622.30 C 636.74 618.20 643.02 613.69 647.00 608.00
C 647.00 608.00 646.16 607.77 646.00 608.00
C 638.07 619.34 621.24 623.89 614.00 635.00 Z"/>
</g>
<g fill="#BBDCB5" fill-opacity="0.36" stroke="None">
<path d="
M 338.00 635.00 
C 332.03 629.85 325.63 624.67 319.00 620.00
C 324.21 625.37 330.89 630.32 338.00 635.00 Z"/>
</g>
<g fill="#B7D7B8" fill-opacity="0.34" stroke="None">
<path d="
M 609.00 638.00 
C 610.68 636.91 611.78 636.68 613.00 635.00
C 611.04 635.53 610.38 636.90 609.00 638.00 Z"/>
</g>
<g fill="#BAD9B8" fill-opacity="0.35" stroke="None">
<path d="
M 360.00 648.00 
C 357.93 644.69 350.68 641.53 347.00 640.00
C 351.09 642.48 354.95 646.89 360.00 648.00 Z"/>
</g>
<g fill="#B4D5BA" fill-opacity="0.36" stroke="None">
<path d="
M 592.00 648.00 
C 596.59 645.70 600.74 642.61 605.00 640.00
C 600.13 642.22 596.18 645.11 592.00 648.00 Z"/>
</g>
<g fill="#C0E4BE" fill-opacity="0.28" stroke="None">
<path d="
M 368.00 652.00 
C 365.91 650.75 363.31 649.45 361.00 648.00
C 359.57 650.68 365.72 651.01 368.00 652.00 Z"/>
</g>
<g fill="#C5DAB4" fill-opacity="0.31" stroke="None">
<path d="
M 576.00 656.00 
C 577.92 655.47 579.45 653.72 581.00 653.00
C 578.60 653.88 577.89 654.47 576.00 656.00 Z"/>
</g>
<g fill="#BFD4B5" fill-opacity="0.33" stroke="None">
<path d="
M 384.00 659.00 
C 382.06 658.02 380.33 656.71 378.00 656.00
C 380.00 656.94 381.55 658.19 384.00 659.00 Z"/>
</g>
<g fill="#BDD6BD" fill-opacity="0.29" stroke="None">
<path d="
M 568.00 659.00 
C 570.22 658.18 572.06 656.95 574.00 656.00
C 571.46 656.44 570.02 657.98 568.00 659.00 Z"/>
</g>
<g fill="#B0CFB0" fill-opacity="0.38" stroke="None">
<path d="
M 404.00 666.00 
C 402.22 665.18 401.21 664.51 399.00 664.00
C 400.40 664.50 402.30 665.46 404.00 666.00 Z"/>
</g>
<g fill="#BEDEBB" fill-opacity="0.31" stroke="None">
<path d="
M 541.00 668.00 
C 542.98 667.49 544.40 666.57 546.00 666.00
C 544.15 666.45 542.49 667.46 541.00 668.00 Z"/>
</g>
<g fill="#B5D1B3" fill-opacity="0.40" stroke="None">
<path d="
M 419.00 670.00 
C 416.69 669.22 414.82 668.41 412.00 668.00
C 413.96 668.50 416.64 669.50 419.00 670.00 Z"/>
</g>
</svg>